<?xml version="1.0" standalone="no"?>
<!DOCTYPE svg PUBLIC "-//W3C//DTD SVG 1.1//EN" "http://www.w3.org/Graphics/SVG/1.1/DTD/svg11.dtd" >
<svg xmlns="http://www.w3.org/2000/svg">
<metadata></metadata>
<defs>
<font id="planet_kosmosregular" horiz-adv-x="1689" >
<font-face units-per-em="2048" ascent="1638" descent="-410" />
<missing-glyph horiz-adv-x="993" />
<glyph horiz-adv-x="2048" />
<glyph horiz-adv-x="2048" />
<glyph unicode="&#xd;" horiz-adv-x="993" />
<glyph unicode=" "  horiz-adv-x="993" />
<glyph unicode="&#x09;" horiz-adv-x="993" />
<glyph unicode="&#xa0;" horiz-adv-x="993" />
<glyph unicode="!" horiz-adv-x="770" d="M6 49q0 -49 57 -49h492q41 0 86 28.5t70 69.5l112 197q16 27 17 49q0 49 -58 49h-491q-41 0 -86 -28.5t-70 -69.5l-112 -197q-16 -27 -17 -49zM348 639q0 -49 55 -49h492q41 0 87 28.5t69 69.5l737 1278q16 27 16 49q0 49 -57 49h-492q-41 0 -86 -28.5t-69 -69.5 l-738 -1278q-14 -27 -14 -49z" />
<glyph unicode="&#x22;" horiz-adv-x="1662" d="M602 1069q0 -33 10 -51l273 -463q12 -18 30 -18q33 0 64 53l567 983q16 27 17 49q0 49 -58 49h-491q-41 0 -86 -28.5t-70 -69.5l-225 -393q-31 -53 -31 -111zM1487 1069q0 -33 10 -51l272 -463q12 -18 31 -18q33 0 64 53l567 983q16 27 16 49q0 49 -57 49h-492 q-41 0 -86 -28.5t-69 -69.5l-225 -393q-31 -53 -31 -111z" />
<glyph unicode="#" horiz-adv-x="2041" d="M61 147q0 -49 56 -49q57 0 57 -49q0 -23 -14 -49q-16 -27 -17 -49q0 -49 58 -49h491q41 0 86 28.5t70 69.5q23 41 69 69.5t84 28.5q57 0 58 -49q0 -23 -15 -49q-16 -27 -16 -49q0 -49 57 -49h492q41 0 86 28.5t70 69.5q41 74 154.5 98.5t154.5 98.5l115 196q14 27 14 49 q0 41 -56.5 49.5t-56.5 49.5q0 23 15 49q43 74 155.5 98t153.5 98l115 197q14 27 14 49q0 41 -56.5 49.5t-56.5 48.5q0 23 15 50q16 27 16 49q0 49 -57 49h-492q-41 0 -86 -28.5t-70 -69.5q-23 -41 -68.5 -70t-84.5 -29q-57 0 -58 49q0 23 15 50q16 27 16 49q0 49 -57 49 h-492q-41 0 -86 -28.5t-69 -69.5q-23 -41 -69 -70t-85 -29q-41 0 -87 -28.5t-69 -69.5l-114 -197q-14 -27 -15 -49q0 -49 58 -49q55 0 55 -49q0 -23 -14 -49q-23 -41 -69 -69.5t-87 -28.5t-86 -29t-68 -70l-114 -196q-14 -27 -15 -50zM1174 541q0 23 14 49q23 41 69 69.5 t86 28.5q55 0 56 -49q0 -23 -15 -49q-23 -41 -68.5 -69.5t-86.5 -28.5q-55 0 -55 49z" />
<glyph unicode="$" d="M0 49q0 -49 57 -49q98 0 136 -63l272 -463q12 -18 31 -19q33 0 63 53l227 394q25 41 70 69.5t86 28.5h492q41 0 86 28.5t69 69.5l226 394q16 27 16 49q0 49 -57 49h-689q-55 0 -55 49q0 23 14 49l113 197q25 41 70 69.5t86 28.5q57 0 57 -49q0 -23 -16 -49l-56 -99 q-16 -27 -16 -49q0 -49 57 -49h492q41 0 86 28.5t70 69.5l112 197q14 27 15 49q0 49 -56 49q-98 0 -137 64l-272 463q-10 18 -29 18q-35 0 -66 -53l-227 -393q-23 -41 -68 -70t-85 -29h-492q-41 0 -87 -28.5t-69 -69.5l-227 -393q-14 -27 -14 -49q0 -49 55 -49h688 q57 0 57 -50q0 -23 -14 -49l-115 -196q-23 -41 -68.5 -70t-84.5 -29q-57 0 -58 49q0 23 15 50l57 98q14 27 14 49q0 49 -55 49h-491q-41 0 -87 -28.5t-69 -69.5l-113 -197q-16 -27 -16 -49z" />
<glyph unicode="%" horiz-adv-x="2271" d="M520 1008q0 -78 52.5 -125t146.5 -47q143 0 302 100t241 244q53 92 53 172q0 78 -52.5 125t-146.5 47q-141 0 -301 -100.5t-242 -243.5q-53 -92 -53 -172zM606 -184q0 -31 12 -52l273 -460q10 -20 29 -21q35 0 65 53l1049 1819q31 53 30 111q0 33 -10 51l-272 463 q-12 18 -31 18q-33 0 -63 -53l-1051 -1819q-31 -51 -31 -110zM1413 -172q0 -78 52.5 -125t146.5 -47q141 0 300 100.5t242 243.5q53 92 54 172q0 78 -53.5 125t-145.5 47q-143 0 -302 -100.5t-241 -243.5q-53 -92 -53 -172z" />
<glyph unicode="&#x26;" horiz-adv-x="2068" d="M6 49q0 -49 57 -49h1573q41 0 86 28.5t70 69.5l170 295q23 41 69 70t85 29q41 0 86.5 28.5t68.5 69.5q16 27 17 49q0 49 -58 49q-57 0 -57 49q0 18 15.5 49t15.5 50q0 49 -58 49h-491q-72 0 -155 -98.5t-154 -98.5q-41 0 -86.5 -28.5t-69.5 -69.5q-14 -27 -14 -49 q0 -49 55 -49q57 0 57 -50q0 -23 -14 -49l-115 -196q-23 -41 -69 -70t-84 -29h-197q-57 0 -57 49q0 23 14 50l455 786q25 41 69.5 69.5t85.5 28.5h688q41 0 86 29t70 70l113 196q14 27 14 49q0 49 -55 50h-1377q-41 0 -87 -29t-68 -70l-737 -1278q-16 -27 -17 -49z M1376 1229q1 22 15 49q25 41 69.5 69.5t85.5 28.5q57 0 58 -49q0 -23 -17 -49q-23 -41 -68.5 -69.5t-84.5 -28.5q-57 0 -58 49z" />
<glyph unicode="'" horiz-adv-x="778" d="M604 1069q0 -33 12 -51l271 -463q12 -18 31 -18q35 0 65 53l567 983q14 27 15 49q0 49 -58 49h-491q-39 0 -85 -28.5t-69 -69.5l-227 -393q-31 -53 -31 -111z" />
<glyph unicode="(" horiz-adv-x="1351" d="M47 -344q0 -49 57 -49h689q35 0 75 14q55 18 56 49q0 27 -65.5 34t-65.5 50q0 23 14 49l852 1475q23 41 69 69.5t87 28.5q35 0 75 15q53 18 54 49q0 35 -74 35h-688q-39 0 -85 -29t-69 -70l-967 -1671q-14 -27 -14 -49z" />
<glyph unicode=")" horiz-adv-x="1357" d="M-197 -358q0 -35 74 -35h688q41 0 87 28.5t69 69.5l965 1671q16 27 16 49q0 49 -57 50h-689q-35 0 -77 -15q-53 -18 -54 -49q0 -25 65.5 -33t65.5 -51q0 -23 -14 -49l-852 -1475q-25 -41 -70 -69.5t-82.5 -28.5t-78.5 -14q-55 -18 -56 -49z" />
<glyph unicode="*" horiz-adv-x="1507" d="M487 834q0 -49 56 -50h245l312 -526q10 -18 28 -18q35 0 66 53l227 393q23 41 68 69.5t86 28.5h147q41 0 87 29t69 70l113 196q16 27 16 49q0 49 -57 50h-148q-98 0 -135 63l-272 463q-12 18 -31 18q-33 0 -64 -53l-227 -393q-25 -41 -70 -69.5t-85 -28.5h-148 q-41 0 -86 -29t-70 -70l-112 -196q-14 -27 -15 -49z" />
<glyph unicode="+" horiz-adv-x="1648" d="M170 342q0 -49 55 -49h246q57 0 57 -49q0 -23 -16 -49l-141 -246q-4 -6 -4 -12q0 -37 73 -37h492q98 0 127 49l141 246q25 41 70 69.5t86 28.5h246q41 0 86 28.5t69 69.5l228 393q14 27 14 50q0 49 -57 49h-246q-55 0 -56 49q0 23 15 49l114 197q14 27 15 49q0 49 -58 49 h-491q-39 0 -85 -28.5t-69 -69.5l-114 -197q-23 -41 -69 -69.5t-87 -28.5h-246q-39 0 -85 -29t-68 -70l-228 -393q-14 -27 -14 -49z" />
<glyph unicode="," horiz-adv-x="798" d="M0 -12q0 -33 12 -51l271 -463q12 -18 30 -19q35 0 66 53l567 984q14 27 15 49q0 49 -58 49h-491q-39 0 -85 -29t-69 -69l-227 -394q-31 -53 -31 -110z" />
<glyph unicode="-" horiz-adv-x="1716" d="M197 342q0 -49 55 -49h1376q41 0 87 28.5t69 69.5l227 393q14 27 14 50q0 49 -55 49h-1376q-41 0 -87 -29t-69 -70l-227 -393q-14 -27 -14 -49z" />
<glyph unicode="." horiz-adv-x="798" d="M10 49q0 -49 58 -49h491q39 0 85 28.5t69 69.5l227 394q16 27 16 49q0 49 -57 49h-491q-41 0 -86.5 -29t-69.5 -69l-227 -394q-14 -27 -15 -49z" />
<glyph unicode="/" horiz-adv-x="817" d="M-203 -377q0 -35 13 -55l272 -463q10 -18 31 -18q33 0 63 53l1292 2236q31 53 31 111q0 33 -12 51l-273 463q-10 18 -28 18q-35 0 -66 -53l-1298 -2249q-25 -43 -25 -94z" />
<glyph unicode="0" d="M10 49q0 -49 58 -49h1376q39 0 85 28.5t68 69.5l512 885q14 27 15 49q0 49 -56 49h-1376q-41 0 -87 -28.5t-68 -69.5l-512 -885q-14 -27 -15 -49zM756 147q0 23 14 50l397 688q25 41 70 69.5t86 28.5q55 0 55 -49q0 -23 -14 -49l-397 -688q-23 -41 -69 -70t-87 -29 q-55 0 -55 49z" />
<glyph unicode="1" horiz-adv-x="778" d="M10 49q0 -49 58 -49h491q39 0 85 28.5t69 69.5l512 885q14 27 14 49q0 49 -55 49h-295q-74 0 -128 -49t-126 -49q-41 0 -86 -28.5t-70 -69.5l-454 -787q-14 -27 -15 -49z" />
<glyph unicode="2" horiz-adv-x="1628" d="M-10 49q0 -49 57 -49h1376q98 0 127 49l142 246q14 27 14 49q0 49 -55 49h-492q-41 0 -87 -28.5t-68 -69.5l-58 -98q-23 -41 -69 -70t-86 -29q-55 0 -56 49q0 23 15 50l170 295q25 41 69.5 69.5t85.5 28.5h688q41 0 86 28.5t70 69.5l170 295q14 27 14 49q0 49 -55 49 h-1376q-98 0 -127 -49l-86 -147q-14 -27 -15 -49q0 -49 56 -50h491q41 0 87 29t69 70q25 41 70 69.5t86 28.5q55 0 55 -49q0 -23 -15 -49l-57 -99q-23 -41 -69 -69.5t-84 -28.5h-689q-41 0 -87 -28.5t-68 -69.5l-285 -492q-14 -27 -14 -49z" />
<glyph unicode="3" horiz-adv-x="1648" d="M0 49q0 -49 57 -49h1377q39 0 85 28.5t68 69.5l228 394q16 27 16 49q0 49 -57 49q-74 0 -74 35q0 31 53 49q41 14 79 14t84 28.5t69 69.5l114 197q14 27 15 49q0 49 -56 49h-1376q-41 0 -87 -28.5t-69 -69.5l-57 -98q-14 -27 -14 -49q0 -49 55 -50h491q41 0 87.5 29 t68.5 70q25 41 70 69.5t86 28.5q55 0 55 -49q0 -23 -14 -49l-58 -99q-23 -41 -68.5 -69.5t-84.5 -28.5q-37 0 -78 -14q-53 -18 -53 -49q0 -35 73 -35q57 0 58 -49q0 -23 -17 -49l-170 -295q-23 -41 -68.5 -70t-86.5 -29q-55 0 -56 49q0 23 15 50l114 196q14 27 15 49 q0 49 -58 50h-491q-41 0 -86 -29t-68 -70l-172 -295q-14 -27 -14 -49z" />
<glyph unicode="4" horiz-adv-x="1648" d="M338 639q0 -49 57 -49h688q55 0 56 -49q0 -23 -15 -49l-227 -394q-14 -27 -14 -49q0 -49 55 -49h492q41 0 87 28.5t68 69.5l512 885q14 27 14 49q0 49 -57 49h-491q-41 0 -86 -28.5t-68 -69.5l-115 -197q-23 -41 -68.5 -69.5t-86.5 -28.5q-55 0 -56 49q0 23 15 49 l114 197q14 27 15 49q0 49 -58 49h-491q-41 0 -86 -28.5t-68 -69.5l-172 -295q-14 -27 -14 -49z" />
<glyph unicode="5" horiz-adv-x="1679" d="M0 35q0 -35 74 -35h1376q41 0 86 28.5t70 69.5l282 492q16 27 17 49q0 49 -58 49h-688q-57 0 -57 49q0 23 16 49l58 99q23 41 67.5 69.5t85.5 28.5h688q35 0 78 14q53 18 53 50q0 35 -73 34h-1377q-41 0 -86 -28.5t-69 -69.5l-170 -295q-14 -27 -15 -49q0 -49 56 -49h688 q57 0 57 -49q0 -23 -14 -49l-170 -295q-25 -41 -70 -70t-86 -29q-57 0 -57 49q0 23 16 50l56 98q16 27 16 49q0 49 -57 49h-492q-41 0 -86 -28.5t-70 -69.5l-141 -246q-4 -6 -4 -14z" />
<glyph unicode="6" horiz-adv-x="1699" d="M20 49q0 -49 58 -49h1376q39 0 85 28.5t69 69.5l284 492q14 27 15 49q0 49 -56 49h-688q-57 0 -57 49q0 23 14 49l58 99q25 41 69.5 69.5t85.5 28.5q55 0 56 -49q0 -23 -15 -49q-14 -27 -14 -49q0 -49 55 -50h492q41 0 87 29t68 70l58 98q14 27 14 49q0 49 -55 49h-1377 q-41 0 -87 -28.5t-68 -69.5l-512 -885q-14 -27 -15 -49zM766 147q0 23 14 50l170 295q25 41 70 69.5t86 28.5q57 0 57 -49q0 -23 -16 -49l-170 -295q-23 -41 -69 -70t-87 -29q-55 0 -55 49z" />
<glyph unicode="7" horiz-adv-x="1669" d="M451 836q0 -49 57 -50h491q39 0 85 29t69 70q25 41 70 69.5t86 28.5q57 0 57 -49q0 -23 -16 -49l-453 -787q-16 -27 -16 -49q0 -49 57 -49h492q41 0 86 28.5t69 69.5l510 885q14 27 14 49q0 49 -55 49h-1376q-41 0 -86 -28.5t-70 -69.5l-57 -98q-14 -27 -14 -49z" />
<glyph unicode="8" d="M12 49q0 -49 56 -49h1376q41 0 87 28.5t68 69.5l228 394q14 27 14 49q0 49 -55 49q-74 0 -74 35q0 31 53 49q41 14 79 14t84 28.5t69 69.5l112 197q16 27 17 49q0 49 -58 49h-1376q-41 0 -86 -28.5t-69 -69.5l-113 -197q-14 -27 -14 -49q0 -49 55 -49q74 0 74 -35 q0 -31 -54 -49q-41 -14 -75 -14q-41 0 -87.5 -29t-68.5 -69l-227 -394q-14 -27 -15 -49zM756 147q0 23 16 50l170 295q23 41 69 69.5t87 28.5q55 0 55 -49q0 -23 -14 -49l-170 -295q-25 -41 -70 -70t-86 -29q-57 0 -57 49zM1098 737q0 23 14 49l57 99q23 41 69 69.5t85 28.5 q57 0 57 -49q0 -23 -14 -49l-57 -99q-23 -41 -69 -69.5t-87 -28.5q-55 0 -55 49z" />
<glyph unicode="9" d="M20 49q0 -49 58 -49h1374q41 0 86 28.5t70 69.5l510 885q16 27 16 49q0 49 -57 49h-1375q-41 0 -87 -28.5t-68 -69.5l-170 -295q-16 -27 -17 -49q0 -49 58 -49h686q57 0 57 -49q0 -23 -14 -49l-170 -295q-25 -41 -70 -70t-86 -29q-55 0 -55 49q0 23 14 50l115 196 q14 27 14 49q0 49 -57 50h-492q-41 0 -86 -29t-67 -70l-172 -295q-14 -27 -15 -49zM1106 737q0 23 14 49l58 99q25 41 69.5 69.5t85.5 28.5q55 0 56 -49q0 -23 -15 -49l-57 -99q-25 -41 -70 -69.5t-86 -28.5q-55 0 -55 49z" />
<glyph unicode=":" horiz-adv-x="811" d="M35 49q0 -49 55 -49h492q41 0 86 28.5t69 69.5l228 394q14 27 14 49q0 49 -57 49h-492q-39 0 -85 -29t-69 -69l-227 -394q-14 -27 -14 -49zM430 737q0 -49 57 -49h492q41 0 86 28.5t70 69.5l112 197q16 27 17 49q0 49 -58 49h-491q-41 0 -86 -28.5t-70 -69.5l-113 -197 q-16 -27 -16 -49z" />
<glyph unicode=";" horiz-adv-x="811" d="M14 -12q0 -33 11 -51l272 -463q10 -18 29 -19q35 0 65 53l567 984q16 27 17 49q0 49 -57 49h-492q-41 0 -86 -29t-70 -69l-227 -394q-29 -53 -29 -110zM426 737q0 -49 57 -49h492q41 0 86 28.5t67 69.5l115 197q14 27 14 49q0 49 -55 49h-491q-41 0 -87 -28.5t-69 -69.5 l-115 -197q-14 -27 -14 -49z" />
<glyph unicode="&#x3c;" horiz-adv-x="1128" d="M6 479q0 -33 12 -51l273 -463q37 -63 135 -63h492q68 0 67 41q0 12 -6 22l-272 463q-12 18 -13 51q0 57 31 111l567 983q16 27 17 49q0 49 -58 49h-491q-41 0 -86 -28.5t-70 -69.5l-567 -983q-31 -53 -31 -111z" />
<glyph unicode="=" horiz-adv-x="1540" d="M94 147q0 -49 58 -49h1179q41 0 86 29t70 70l112 196q14 27 15 49q0 49 -55 50h-1180q-41 0 -87 -29t-69 -70l-112 -196q-16 -27 -17 -50zM434 737q0 -49 58 -49h1179q41 0 86 28.5t70 69.5l112 197q16 27 17 49q0 49 -58 49h-1179q-41 0 -86 -28.5t-70 -69.5l-112 -197 q-16 -27 -17 -49z" />
<glyph unicode="&#x3e;" horiz-adv-x="878" d="M6 -63q0 -35 74 -35h491q41 0 87.5 28.5t68.5 69.5l567 983q31 53 31 111q0 33 -10 51l-273 463q-39 63 -137 63h-491q-68 0 -68 -41q0 -10 8 -22l273 -463q10 -18 10 -51q0 -57 -31 -111l-452 -786l-86 -148l-58 -98q-4 -6 -4 -14z" />
<glyph unicode="?" d="M-6 49q0 -49 55 -49h492q41 0 87 28.5t68 69.5l115 197q14 27 14 49q0 49 -57 49h-492q-41 0 -86 -28.5t-67 -69.5l-115 -197q-14 -27 -14 -49zM229 1327q0 -49 58 -49h491q41 0 86 28.5t70 69.5l55 99q25 41 70 69.5t86 28.5q35 0 78 14q53 18 53 49q0 35 -74 35h-688 q-41 0 -87 -28.5t-69 -69.5l-112 -197q-16 -27 -17 -49zM334 639q0 -49 57 -49h492q39 0 85 28.5t68 69.5l58 98q25 41 69.5 70t85.5 29h246q41 0 86 28.5t70 69.5l340 590q14 27 14 49q0 49 -57 49h-492q-39 0 -85 -28.5t-68 -69.5l-228 -393q-25 -41 -69.5 -70t-85.5 -29 h-246q-41 0 -86 -28.5t-70 -69.5l-170 -295q-14 -27 -14 -49z" />
<glyph unicode="A" horiz-adv-x="1669" d="M-10 49q0 -49 57 -49h1376q39 0 85 28.5t69 69.5l512 885q14 27 14 49q0 49 -55 49h-1376q-41 0 -87 -28.5t-69 -69.5l-115 -197q-14 -27 -14 -49q0 -49 57 -49h492q39 0 85 28.5t69 69.5l57 99q25 41 70 69.5t86 28.5q55 0 55 -49q0 -23 -15 -49l-112 -197 q-25 -41 -70 -69.5t-86 -28.5h-688q-41 0 -86 -29t-70 -69l-227 -394q-14 -27 -14 -49zM735 147q0 23 15 50l114 196q23 41 68 70t86 29q57 0 57 -50q0 -23 -14 -49l-115 -196q-23 -41 -69 -70t-86 -29q-55 0 -56 49z" />
<glyph unicode="B" horiz-adv-x="1648" d="M14 49q0 -49 56 -49h1376q41 0 87 28.5t69 69.5l509 885q16 27 17 49q0 49 -57 49h-689q-59 0 -59 47q0 18 10 39q25 43 25 95q0 35 -12 55l-273 463q-10 18 -29 18q-35 0 -65 -53l-950 -1647q-14 -27 -15 -49zM758 147q0 23 16 50l397 688q23 41 69 69.5t85 28.5 q57 0 57 -49q0 -23 -14 -49l-397 -688q-25 -41 -70 -70t-86 -29q-57 0 -57 49z" />
<glyph unicode="C" horiz-adv-x="1648" d="M0 49q0 -49 57 -49h1377q39 0 85 28.5t68 69.5l228 394q16 27 16 49q0 49 -57 49h-492q-41 0 -86 -29t-70 -69l-170 -295q-23 -41 -68.5 -70t-86.5 -29q-55 0 -56 49q0 23 15 50l397 688q25 41 70 69.5t86 28.5q55 0 55 -49q0 -23 -14 -49l-58 -99q-14 -27 -14 -49 q0 -49 57 -49h492q39 0 85 28.5t69 69.5l114 197q14 27 15 49q0 49 -56 49h-1376q-41 0 -87 -28.5t-69 -69.5l-512 -885q-14 -27 -14 -49z" />
<glyph unicode="D" horiz-adv-x="1648" d="M-14 49q0 -49 57 -49h1376q41 0 86 28.5t70 69.5l616 1069q25 43 25 95q0 35 -12 55l-273 463q-10 18 -28 18q-35 0 -66 -53l-326 -565q-25 -41 -69.5 -70t-85.5 -29h-688q-41 0 -86 -28.5t-70 -69.5l-510 -885q-16 -27 -16 -49zM731 147q0 23 17 50l395 688 q25 41 69.5 69.5t85.5 28.5q57 0 58 -49q0 -23 -17 -49l-395 -688q-25 -41 -70 -70t-86 -29q-57 0 -57 49z" />
<glyph unicode="E" horiz-adv-x="1648" d="M-6 49q0 -49 55 -49h1376q41 0 87.5 28.5t68.5 69.5l115 197q14 27 14 49q0 49 -57 49h-492q-41 0 -86 -28.5t-67 -69.5l-58 -98q-25 -41 -69.5 -70t-85.5 -29q-57 0 -58 49q0 23 17 50l112 196q25 41 70 70t86 29h688q41 0 86 28.5t70 69.5l227 393q14 27 14 49 q0 49 -57 49h-1376q-41 0 -86 -28.5t-68 -69.5l-512 -885q-14 -27 -14 -49zM1022 639q0 23 14 49l115 197q23 41 69 69.5t87 28.5q55 0 55 -49q0 -23 -14 -49l-115 -197q-23 -41 -69 -69.5t-85 -28.5q-57 0 -57 49z" />
<glyph unicode="F" horiz-adv-x="770" d="M-113 -182q0 -33 13 -51l270 -463q12 -18 31 -19q35 0 65 53l1006 1743q23 41 68.5 70t86.5 29q35 0 76 14q53 18 53 49q0 35 -73 35q-55 0 -56 49q0 23 15 49l57 99q23 41 69 69.5t87 28.5q35 0 76 14q53 18 53 49q0 35 -74 35h-688q-41 0 -86 -28.5t-68 -69.5 l-950 -1645q-31 -53 -31 -110z" />
<glyph unicode="G" horiz-adv-x="1628" d="M-6 49q0 -49 55 -49h688q61 0 62 -47q0 -18 -13 -39q-24 -39 -24 -88q0 -39 12 -62l273 -460q12 -20 30 -21q35 0 66 53l665 1156q14 27 15 49q0 49 -56 49h-491q-41 0 -87 -29t-69 -69l-170 -295q-25 -41 -69.5 -70t-85.5 -29q-57 0 -58 49q0 23 17 50l397 688 q23 41 69 69.5t87 28.5q55 0 55 -49q0 -23 -14 -49l-58 -99q-14 -27 -14 -49q0 -49 55 -49h492q41 0 87 28.5t68 69.5l115 197q14 27 14 49q0 49 -57 49h-1376q-41 0 -86 -28.5t-68 -69.5l-512 -885q-14 -27 -14 -49z" />
<glyph unicode="H" d="M-14 49q0 -49 57 -49h492q41 0 86 28.5t69 69.5l453 787q25 41 69.5 69.5t85.5 28.5q57 0 58 -49q0 -23 -17 -49l-452 -787q-16 -27 -17 -49q0 -49 58 -49h491q41 0 86 28.5t70 69.5l510 885q16 27 16 49q0 49 -57 49h-688q-61 0 -62 47q0 18 13 39q24 41 24 91 q0 39 -12 59l-272 463q-10 18 -29 18q-35 0 -66 -53l-950 -1647q-16 -27 -16 -49z" />
<glyph unicode="I" horiz-adv-x="790" d="M20 49q0 -49 58 -49h491q39 0 85 28.5t69 69.5l512 885q14 27 14 49q0 49 -57 49h-492q-39 0 -85 -28.5t-68 -69.5l-512 -885q-14 -27 -15 -49z" />
<glyph unicode="J" horiz-adv-x="878" d="M0 -233l270 -463q12 -18 31 -19q35 0 66 53l950 1647q14 27 14 49q0 49 -55 49h-492q-41 0 -87 -28.5t-68 -69.5l-619 -1069q-24 -41 -24 -90q0 -39 14 -59z" />
<glyph unicode="K" d="M18 49q0 -49 58 -49h491q41 0 86 28.5t70 69.5l283 492q25 41 69.5 69.5t85.5 28.5q57 0 58 -49q0 -23 -17 -49l-282 -492q-16 -27 -17 -49q0 -49 58 -49h491q41 0 84 25.5t63 60.5q25 43 25 94q0 35 -12 56l-228 389q-8 12 -8 22q0 41 68 41h405q41 0 86 28.5t70 69.5 l113 197q16 27 16 49q0 49 -57 49h-492q-41 0 -86 -28.5t-69 -69.5l-58 -98q-23 -41 -67.5 -70t-85.5 -29q-57 0 -58 50q0 23 15 49l163 282q25 43 25 95q0 35 -12 55l-273 463q-10 18 -28 18q-35 0 -66 -53l-950 -1647q-16 -27 -17 -49z" />
<glyph unicode="L" horiz-adv-x="790" d="M6 49q0 -49 57 -49h492q41 0 86 28.5t70 69.5l616 1069q25 43 25 95q0 35 -13 55l-272 463q-10 18 -29 18q-35 0 -65 -53l-326 -565l-624 -1082q-16 -27 -17 -49z" />
<glyph unicode="M" horiz-adv-x="2527" d="M-14 49q0 -49 57 -49h492q41 0 86 28.5t69 69.5l453 787q25 41 69.5 69.5t85.5 28.5q57 0 58 -49q0 -23 -17 -49l-452 -787q-16 -27 -17 -49q0 -49 58 -49h491q41 0 86 28.5t70 69.5l455 787q23 41 67.5 69.5t85.5 28.5q57 0 58 -49q0 -23 -15 -49l-561 -971 q-25 -41 -25 -92q0 -35 13 -58l272 -460q12 -20 31 -21q33 0 63 53l951 1647q16 27 16 49q0 49 -57 49h-2261q-41 0 -86 -28.5t-70 -69.5l-510 -885q-16 -27 -16 -49z" />
<glyph unicode="N" d="M23 49q0 -49 57 -49h491q39 0 85 28.5t69 69.5l455 787q23 41 68.5 69.5t86.5 28.5q55 0 56 -49q0 -23 -15 -49l-454 -787q-14 -27 -15 -49q0 -49 58 -49h491q39 0 85 28.5t69 69.5l512 885q14 27 14 49q0 49 -57 49h-1377q-39 0 -85 -28.5t-68 -69.5l-512 -885 q-14 -27 -14 -49z" />
<glyph unicode="O" d="M35 49q0 -49 57 -49h1376q39 0 85 28.5t69 69.5l512 885q14 27 14 49q0 49 -57 49h-1376q-39 0 -85 -28.5t-69 -69.5l-512 -885q-14 -27 -14 -49zM780 147q0 23 15 50l397 688q23 41 69 69.5t87 28.5q55 0 55 -49q0 -23 -14 -49l-398 -688q-23 -41 -68.5 -70t-86.5 -29 q-55 0 -56 49z" />
<glyph unicode="P" horiz-adv-x="1751" d="M0 -236l270 -460q12 -20 31 -21q35 0 66 53l325 566q23 41 69 69.5t85 28.5h688q41 0 87 28.5t69 69.5l512 885q14 27 14 49q0 49 -57 49h-1377q-41 0 -86 -28.5t-67 -69.5l-619 -1069q-24 -39 -24 -88q0 -39 14 -62zM846 147q0 23 16 50l398 688q23 41 68.5 69.5 t86.5 28.5q55 0 55 -49q0 -23 -14 -49l-397 -688q-25 -41 -70 -70t-86 -29q-57 0 -57 49z" />
<glyph unicode="Q" d="M12 49q0 -49 58 -49h688q61 0 61 -47q0 -18 -12 -39q-25 -43 -25 -94q0 -35 13 -56l272 -462q10 -18 29 -19q35 0 65 53l950 1647q16 27 17 49q0 49 -57 49h-1377q-41 0 -86 -28.5t-69 -69.5l-510 -885q-16 -27 -17 -49zM758 147q0 23 16 50l397 688q23 41 68 69.5 t86 28.5q57 0 57 -49q0 -23 -14 -49l-397 -688q-25 -41 -70 -70t-86 -29q-57 0 -57 49z" />
<glyph unicode="R" d="M-14 49q0 -49 55 -49h491q41 0 87.5 28.5t68.5 69.5l455 787q23 41 68.5 69.5t84.5 28.5q57 0 58 -49q0 -23 -15 -49l-57 -99q-14 -27 -14 -49q0 -49 55 -49h492q41 0 87 28.5t68 69.5l113 197q16 27 16 49q0 49 -57 49h-1376q-41 0 -86 -28.5t-70 -69.5l-510 -885 q-14 -27 -14 -49z" />
<glyph unicode="S" d="M14 49q0 -49 56 -49h1376q41 0 87 28.5t69 69.5l227 394q14 27 14 49q0 49 -55 49h-688q-57 0 -58 49q0 23 15 49l114 197q23 41 69 69.5t85 28.5q57 0 57 -49q0 -23 -14 -49l-57 -99q-14 -27 -15 -49q0 -49 56 -49h491q41 0 87 28.5t69 69.5l112 197q16 27 17 49 q0 49 -57 49h-1377q-41 0 -86 -28.5t-69 -69.5l-226 -393q-16 -27 -16 -49q0 -49 57 -49h688q57 0 58 -50q0 -23 -17 -49l-112 -196q-25 -41 -70 -70t-86 -29q-57 0 -57 49q0 23 16 50l55 98q16 27 17 49q0 49 -58 49h-491q-41 0 -86 -28.5t-70 -69.5l-112 -197 q-14 -27 -15 -49z" />
<glyph unicode="T" horiz-adv-x="755" d="M-113 -184q0 -31 13 -52l270 -460q12 -20 31 -21q35 0 65 53l1006 1745q25 41 69.5 70t85.5 29q35 0 78 14q53 18 54 49q0 35 -74 35q-57 0 -58 49q0 23 15 49l114 197q14 27 15 49q0 49 -55 49h-492q-41 0 -87 -28.5t-69 -69.5l-950 -1647q-31 -51 -31 -110z" />
<glyph unicode="U" horiz-adv-x="1648" d="M14 49q0 -49 56 -49h1376q41 0 87 28.5t69 69.5l509 885q16 27 17 49q0 49 -57 49h-492q-41 0 -86 -28.5t-70 -69.5l-452 -786q-25 -41 -70 -70t-86 -29q-57 0 -57 49q0 23 16 50l453 786q16 27 16 49q0 49 -57 49h-492q-41 0 -86 -28.5t-69 -69.5l-510 -885 q-14 -27 -15 -49z" />
<glyph unicode="V" horiz-adv-x="1351" d="M35 578q0 -33 10 -52l272 -463q37 -63 136 -63h688q41 0 87 28.5t68 69.5l510 885q16 27 17 49q0 49 -58 49h-491q-41 0 -86 -28.5t-70 -69.5l-452 -786q-25 -41 -70 -70t-86 -29q-57 0 -57 49q0 23 16 50l453 786q16 27 16 49q0 49 -57 49h-492q-41 0 -86 -28.5 t-70 -69.5l-170 -295q-28 -48 -28 -100v-10z" />
<glyph unicode="W" horiz-adv-x="2209" d="M0 578q0 -33 12 -52l310 -526h1669q41 0 87 28.5t68 69.5l512 885q14 27 15 49q0 49 -58 49h-491q-41 0 -86 -28.5t-68 -69.5l-454 -786q-25 -41 -70 -70t-86 -29q-55 0 -55 49q0 23 14 50l455 786q14 27 14 49q0 49 -55 49h-492q-41 0 -87 -28.5t-69 -69.5l-454 -786 q-23 -41 -69 -70t-85 -29q-57 0 -57 49q0 23 14 50l455 786q14 27 14 49q0 49 -55 49h-492q-41 0 -87 -28.5t-68 -69.5l-170 -295q-31 -53 -31 -110z" />
<glyph unicode="X" horiz-adv-x="1628" d="M-6 49q0 -49 55 -49h492q41 0 87 28.5t68 69.5l170 295q25 41 70 70t86 29q55 0 55 -50q0 -23 -14 -49l-170 -295q-16 -27 -16 -49q0 -49 57 -49h491q41 0 86 28.5t70 69.5l225 394q16 27 17 49q0 49 -58 49h-491q-74 0 -74 35q0 31 53 49q43 14 78 14h492q41 0 86 28.5 t69 69.5l113 197q14 27 14 49q0 49 -55 49h-491q-41 0 -87.5 -28.5t-68.5 -69.5l-57 -98q-23 -41 -69 -70t-85 -29q-57 0 -57 50q0 23 14 49l57 98q14 27 15 49q0 49 -56 49h-491q-41 0 -87 -28.5t-69 -69.5l-112 -197q-16 -27 -17 -49q0 -49 57 -49h492q74 0 74 -35 q0 -31 -54 -49q-43 -14 -77 -14h-490q-41 0 -87 -29t-68 -69l-228 -394q-14 -27 -14 -49z" />
<glyph unicode="Y" horiz-adv-x="1703" d="M6 49q0 -49 57 -49h689q59 0 59 -47q0 -18 -10 -39q-25 -43 -25 -94q0 -35 12 -56l273 -462q10 -18 29 -19q35 0 65 53l950 1647q14 27 15 49q0 49 -56 49h-491q-41 0 -86 -28.5t-70 -69.5l-454 -786q-23 -41 -69 -70t-85 -29q-57 0 -57 49q0 23 14 50l455 786 q14 27 14 49q0 49 -55 49h-492q-41 0 -86 -28.5t-70 -69.5l-509 -885q-16 -27 -17 -49z" />
<glyph unicode="Z" d="M-6 49q0 -49 55 -49h1376q37 0 78 14q53 18 53 49q0 35 -73 35h-688q-57 0 -58 49q0 23 17 50l112 196q25 41 70 70t86 29h688q41 0 86 28.5t70 69.5l227 393q14 27 14 49q0 49 -57 49h-1376q-35 0 -76 -14q-55 -18 -55 -49q0 -35 75 -35h689q55 0 55 -49q0 -23 -14 -49 l-115 -197q-23 -41 -69 -69.5t-85 -28.5h-688q-41 0 -87 -29t-68 -69l-228 -394q-14 -27 -14 -49z" />
<glyph unicode="[" horiz-adv-x="1290" d="M-182 -344q0 -49 57 -49h688q35 0 76 14q53 18 53 49q0 27 -64.5 34t-64.5 50q0 23 15 49l852 1475q23 41 68.5 69.5t83.5 28.5t79 15q53 18 53 49q0 35 -74 35h-688q-41 0 -86 -29t-69 -70l-965 -1671q-14 -27 -14 -49z" />
<glyph unicode="\" d="M10 -344q0 -49 58 -49h491q39 0 85 28.5t69 69.5l966 1671q14 27 15 49q0 49 -58 50h-491q-41 0 -86 -29t-68 -70l-966 -1671q-14 -27 -15 -49z" />
<glyph unicode="]" horiz-adv-x="1263" d="M27 -358q0 -35 73 -35h688q41 0 87.5 28.5t68.5 69.5l965 1671q16 27 16 49q0 49 -57 50h-688q-35 0 -78 -15q-53 -18 -53 -49q0 -25 65.5 -33t65.5 -51q0 -23 -17 -49l-850 -1475q-25 -41 -69.5 -69.5t-82.5 -28.5t-81 -14q-53 -18 -53 -49z" />
<glyph unicode="a" d="M31 49q0 -49 57 -49h1376q39 0 85 28.5t69 69.5l512 885q14 27 14 49q0 49 -55 49h-1376q-41 0 -87 -28.5t-69 -69.5l-115 -197q-14 -27 -14 -49q0 -49 57 -49h492q39 0 85 28.5t68 69.5l58 99q25 41 70 69.5t85 28.5q55 0 56 -49q0 -23 -15 -49l-112 -197 q-25 -41 -70 -69.5t-86 -28.5h-688q-41 0 -86 -29t-70 -69l-227 -394q-14 -27 -14 -49zM776 147q0 23 15 50l114 196q23 41 68 70t86 29q57 0 57 -50q0 -23 -14 -49l-115 -196q-23 -41 -69 -70t-87 -29q-55 0 -55 49z" />
<glyph unicode="b" d="M10 49q0 -49 58 -49h1376q39 0 85 28.5t68 69.5l512 885q14 27 15 49q0 49 -56 49h-688q-61 0 -61 47q0 18 12 39q25 43 25 95q0 35 -13 55l-272 463q-12 18 -31 18q-33 0 -63 -53l-952 -1647q-14 -27 -15 -49zM756 147q0 23 14 50l397 688q25 41 70 69.5t86 28.5 q55 0 55 -49q0 -23 -14 -49l-397 -688q-23 -41 -69 -70t-87 -29q-55 0 -55 49z" />
<glyph unicode="c" horiz-adv-x="1648" d="M0 49q0 -49 57 -49h1377q39 0 85 28.5t68 69.5l228 394q16 27 16 49q0 49 -57 49h-492q-41 0 -86 -29t-70 -69l-170 -295q-23 -41 -68.5 -70t-86.5 -29q-55 0 -56 49q0 23 15 50l397 688q25 41 70 69.5t86 28.5q55 0 55 -49q0 -23 -14 -49l-58 -99q-14 -27 -14 -49 q0 -49 57 -49h492q39 0 85 28.5t69 69.5l114 197q14 27 15 49q0 49 -56 49h-1376q-41 0 -87 -28.5t-69 -69.5l-512 -885q-14 -27 -14 -49z" />
<glyph unicode="d" horiz-adv-x="1669" d="M10 49q0 -49 58 -49h1376q39 0 85 28.5t68 69.5l619 1069q25 43 25 95q0 35 -13 55l-272 463q-12 18 -31 18q-33 0 -63 -53l-328 -565q-23 -41 -69 -70t-85 -29h-688q-41 0 -87 -28.5t-68 -69.5l-512 -885q-14 -27 -15 -49zM756 147q0 23 14 50l397 688q25 41 70 69.5 t86 28.5q55 0 55 -49q0 -23 -14 -49l-397 -688q-23 -41 -69 -70t-87 -29q-55 0 -55 49z" />
<glyph unicode="e" horiz-adv-x="1669" d="M10 49q0 -49 58 -49h1376q39 0 85 28.5t68 69.5l115 197q14 27 14 49q0 49 -55 49h-491q-41 0 -87 -28.5t-69 -69.5l-57 -98q-23 -41 -69 -70t-87 -29q-55 0 -55 49q0 23 14 50l115 196q23 41 67.5 70t85.5 29h688q41 0 87.5 28.5t68.5 69.5l227 393q14 27 15 49 q0 49 -56 49h-1376q-41 0 -87 -28.5t-68 -69.5l-512 -885q-14 -27 -15 -49zM1038 639q0 23 17 49l112 197q25 41 70 69.5t86 28.5q55 0 55 -49q0 -23 -14 -49l-113 -197q-25 -41 -69.5 -69.5t-85.5 -28.5q-57 0 -58 49z" />
<glyph unicode="f" horiz-adv-x="796" d="M-92 -182q0 -33 12 -51l270 -463q12 -18 31 -19q35 0 66 53l1005 1743q23 41 69 70t87 29q35 0 76 14q53 18 53 49q0 35 -74 35q-55 0 -55 49q0 23 14 49l58 99q23 41 68.5 69.5t86.5 28.5q35 0 76 14q53 18 53 49q0 35 -73 35h-689q-41 0 -86 -28.5t-67 -69.5 l-950 -1645q-31 -53 -31 -110z" />
<glyph unicode="g" horiz-adv-x="1669" d="M-10 49q0 -49 57 -49h688q59 0 60 -47q0 -18 -11 -39q-24 -39 -24 -88q0 -39 12 -62l272 -460q10 -20 29 -21q35 0 66 53l665 1156q16 27 17 49q0 49 -58 49h-491q-41 0 -86 -29t-70 -69l-170 -295q-23 -41 -69 -70t-86 -29q-55 0 -56 49q0 23 15 50l397 688 q25 41 70 69.5t86 28.5q55 0 55 -49q0 -23 -15 -49l-57 -99q-14 -27 -14 -49q0 -49 57 -49h492q39 0 85 28.5t68 69.5l115 197q14 27 14 49q0 49 -55 49h-1376q-41 0 -87 -28.5t-69 -69.5l-512 -885q-14 -27 -14 -49z" />
<glyph unicode="h" horiz-adv-x="1703" d="M20 49q0 -49 58 -49h491q39 0 85 28.5t69 69.5l455 787q25 41 69.5 69.5t85.5 28.5q55 0 56 -49q0 -23 -15 -49l-454 -787q-14 -27 -15 -49q0 -49 58 -49h491q39 0 85 28.5t69 69.5l512 885q14 27 14 49q0 49 -55 49h-688q-61 0 -62 47q0 18 12 39q25 43 25 95 q0 35 -12 55l-273 463q-12 18 -30 18q-33 0 -64 -53l-952 -1647q-14 -27 -15 -49z" />
<glyph unicode="i" horiz-adv-x="804" d="M20 49q0 -49 58 -49h491q39 0 85 28.5t69 69.5l512 885q14 27 14 49q0 49 -55 49h-492q-41 0 -87 -28.5t-68 -69.5l-512 -885q-14 -27 -15 -49z" />
<glyph unicode="j" horiz-adv-x="770" d="M-113 -178q0 -35 13 -55l272 -463q10 -18 31 -19q33 0 63 53l951 1647q16 27 16 49q0 49 -57 49h-492q-41 0 -86 -28.5t-70 -69.5l-616 -1069q-25 -43 -25 -94z" />
<glyph unicode="k" horiz-adv-x="1648" d="M0 49q0 -49 57 -49h492q39 0 85 28.5t68 69.5l285 492q23 41 69 69.5t87 28.5q55 0 55 -49q0 -23 -14 -49l-285 -492q-14 -27 -14 -49q0 -49 57 -49h492q39 0 83 25.5t64 60.5q25 43 25 94q0 35 -13 56l-229 389q-6 12 -6 22q0 41 67 41h406q39 0 85 28.5t69 69.5 l114 197q14 27 15 49q0 49 -56 49h-491q-41 0 -87 -28.5t-69 -69.5l-57 -98q-23 -41 -69 -70t-87 -29q-55 0 -55 50q0 23 14 49l164 282q25 43 25 95q0 35 -13 55l-272 463q-12 18 -31 18q-33 0 -63 -53l-953 -1647q-14 -27 -14 -49z" />
<glyph unicode="l" horiz-adv-x="804" d="M31 49q0 -49 57 -49h492q39 0 85 28.5t68 69.5l619 1069q24 41 24 91q0 39 -12 59l-272 463q-12 18 -31 18q-33 0 -64 -53l-327 -565l-625 -1082q-14 -27 -14 -49z" />
<glyph unicode="m" horiz-adv-x="2514" d="M-10 49q0 -49 57 -49h492q39 0 85 28.5t68 69.5l455 787q25 41 70 69.5t86 28.5q55 0 55 -49q0 -23 -15 -49l-454 -787q-14 -27 -15 -49q0 -49 58 -49h491q39 0 85 28.5t69 69.5l455 787q25 41 69.5 69.5t85.5 28.5q55 0 56 -49q0 -23 -15 -49l-559 -971q-24 -39 -24 -88 q0 -39 12 -62l272 -460q10 -20 29 -21q35 0 65 53l951 1647q14 27 14 49q0 49 -55 49h-2261q-41 0 -87 -28.5t-69 -69.5l-512 -885q-14 -27 -14 -49z" />
<glyph unicode="n" horiz-adv-x="1669" d="M0 49q0 -49 57 -49h492q39 0 85 28.5t68 69.5l455 787q25 41 70 69.5t86 28.5q55 0 55 -49q0 -23 -14 -49l-455 -787q-14 -27 -14 -49q0 -49 57 -49h492q39 0 85 28.5t68 69.5l512 885q14 27 15 49q0 49 -56 49h-1376q-41 0 -87 -28.5t-69 -69.5l-512 -885 q-14 -27 -14 -49z" />
<glyph unicode="o" d="M10 49q0 -49 58 -49h1376q39 0 85 28.5t68 69.5l512 885q14 27 15 49q0 49 -56 49h-1376q-41 0 -87 -28.5t-68 -69.5l-512 -885q-14 -27 -15 -49zM756 147q0 23 14 50l397 688q25 41 70 69.5t86 28.5q55 0 55 -49q0 -23 -14 -49l-397 -688q-23 -41 -69 -70t-87 -29 q-55 0 -55 49z" />
<glyph unicode="p" horiz-adv-x="1675" d="M-123 -178q0 -35 12 -58l273 -460q10 -20 31 -21q33 0 63 53l326 566q25 41 69.5 69.5t85.5 28.5h688q41 0 86 28.5t70 69.5l510 885q16 27 16 49q0 49 -57 49h-1376q-41 0 -86 -28.5t-70 -69.5l-616 -1069q-25 -41 -25 -92zM737 147q0 23 15 50l397 688q25 41 70 69.5 t86 28.5q57 0 57 -49q0 -23 -16 -49l-398 -688q-23 -41 -67.5 -70t-85.5 -29q-57 0 -58 49z" />
<glyph unicode="q" d="M10 49q0 -49 58 -49h688q59 0 59 -47q0 -18 -12 -39q-25 -43 -25 -94q0 -35 15 -56l270 -462q12 -18 31 -19q35 0 65 53l950 1647q14 27 15 49q0 49 -56 49h-1376q-41 0 -87 -28.5t-68 -69.5l-512 -885q-14 -27 -15 -49zM756 147q0 23 14 50l397 688q25 41 70 69.5 t86 28.5q55 0 55 -49q0 -23 -14 -49l-397 -688q-23 -41 -69 -70t-87 -29q-55 0 -55 49z" />
<glyph unicode="r" horiz-adv-x="1669" d="M31 49q0 -49 57 -49h492q39 0 85 28.5t68 69.5l455 787q25 41 70 69.5t85 28.5q55 0 56 -49q0 -23 -15 -49l-57 -99q-14 -27 -14 -49q0 -49 57 -49h492q39 0 85 28.5t68 69.5l115 197q14 27 14 49q0 49 -55 49h-1376q-41 0 -87 -28.5t-69 -69.5l-512 -885 q-14 -27 -14 -49z" />
<glyph unicode="s" d="M31 49q0 -49 57 -49h1376q39 0 85 28.5t69 69.5l227 394q16 27 17 49q0 49 -58 49h-688q-57 0 -57 49q0 23 16 49l113 197q25 41 70 69.5t85 28.5q55 0 56 -49q0 -23 -15 -49l-57 -99q-14 -27 -14 -49q0 -49 57 -49h492q39 0 85 28.5t68 69.5l115 197q14 27 14 49 q0 49 -55 49h-1376q-41 0 -87 -28.5t-69 -69.5l-227 -393q-14 -27 -15 -49q0 -49 56 -49h688q57 0 57 -50q0 -23 -14 -49l-115 -196q-23 -41 -69 -70t-87 -29q-55 0 -55 49q0 23 15 50l57 98q14 27 14 49q0 49 -55 49h-492q-41 0 -87 -28.5t-68 -69.5l-115 -197 q-14 -27 -14 -49z" />
<glyph unicode="t" horiz-adv-x="913" d="M-90 -236l270 -460q12 -20 31 -21q35 0 65 53l1006 1745q25 41 70 70t86 29q35 0 78 14q53 18 53 49q0 35 -74 35q-57 0 -57 49q0 23 14 49l115 197q14 27 14 49q0 49 -55 49h-492q-41 0 -87 -28.5t-68 -69.5l-951 -1647q-30 -49 -30 -106q0 -35 12 -56z" />
<glyph unicode="u" horiz-adv-x="1675" d="M20 49q0 -49 58 -49h1376q39 0 85 28.5t69 69.5l512 885q14 27 14 49q0 49 -55 49h-492q-41 0 -87 -28.5t-68 -69.5l-455 -786q-23 -41 -69 -70t-87 -29q-55 0 -55 49q0 23 14 50l455 786q14 27 14 49q0 49 -55 49h-492q-41 0 -87 -28.5t-68 -69.5l-512 -885 q-14 -27 -15 -49z" />
<glyph unicode="v" horiz-adv-x="1662" d="M340 526l270 -463q39 -63 138 -63h688q41 0 86 28.5t69 69.5l510 885q14 27 15 49q0 49 -56 49h-491q-41 0 -87 -28.5t-69 -69.5l-455 -786q-23 -41 -68.5 -70t-84.5 -29q-57 0 -57 49q0 23 14 50l455 786q14 27 14 49q0 49 -55 49h-492q-41 0 -87 -28.5t-69 -69.5 l-170 -295q-30 -51 -30 -106q0 -37 12 -56z" />
<glyph unicode="w" horiz-adv-x="2500" d="M291 578q0 -33 10 -52l311 -526h1669q41 0 87.5 28.5t68.5 69.5l510 885q16 27 16 49q0 49 -57 49h-491q-41 0 -86 -28.5t-70 -69.5l-453 -786q-25 -41 -69.5 -70t-85.5 -29q-55 0 -56 49q0 23 15 50l454 786q14 27 15 49q0 49 -56 49h-491q-41 0 -87 -28.5t-69 -69.5 l-454 -786q-23 -41 -69 -70t-87 -29q-55 0 -55 49q0 23 14 50l455 786q14 27 14 49q0 49 -55 49h-492q-41 0 -87 -28.5t-68 -69.5l-170 -295q-31 -53 -31 -110z" />
<glyph unicode="x" horiz-adv-x="1662" d="M10 49q0 -49 58 -49h491q39 0 85 28.5t69 69.5l172 295q23 41 67.5 70t85.5 29q55 0 56 -50q0 -23 -15 -49l-170 -295q-14 -27 -14 -49q0 -49 55 -49h492q41 0 86 28.5t69 69.5l228 394q14 27 14 49q0 49 -57 49h-492q-73 0 -73 34q0 32 55 50q41 14 76 14h491 q41 0 86 28.5t70 69.5l112 197q16 27 17 49q0 49 -58 49h-491q-41 0 -86 -28.5t-70 -69.5l-55 -98q-25 -41 -70 -70t-86 -29q-57 0 -57 50q0 23 16 49l56 98q16 27 16 49q0 49 -57 49h-492q-41 0 -86 -28.5t-69 -69.5l-113 -197q-14 -27 -14 -49q0 -49 55 -49h491 q74 0 74 -35q0 -31 -53 -49q-41 -14 -78 -14h-489q-41 0 -86.5 -29t-69.5 -69l-227 -394q-14 -27 -15 -49z" />
<glyph unicode="y" d="M10 49q0 -49 58 -49h688q59 0 59 -47q0 -18 -12 -39q-25 -43 -25 -94q0 -35 15 -56l270 -462q12 -18 31 -19q35 0 65 53l950 1647q14 27 15 49q0 49 -56 49h-491q-41 0 -87 -28.5t-69 -69.5l-454 -786q-23 -41 -69 -70t-87 -29q-55 0 -55 49q0 23 14 50l455 786 q14 27 14 49q0 49 -55 49h-492q-41 0 -87 -28.5t-68 -69.5l-512 -885q-14 -27 -15 -49z" />
<glyph unicode="z" d="M-10 49q0 -49 57 -49h1376q35 0 76 14q53 18 53 49q0 35 -73 35h-688q-55 0 -56 49q0 23 15 50l114 196q23 41 68 70t86 29h688q41 0 87 28.5t69 69.5l227 393q14 27 14 49q0 49 -55 49h-1376q-37 0 -78 -14q-53 -18 -53 -49q0 -35 73 -35h689q55 0 55 -49q0 -23 -15 -49 l-112 -197q-25 -41 -70 -69.5t-86 -28.5h-688q-41 0 -86 -29t-70 -69l-227 -394q-14 -27 -14 -49z" />
<glyph unicode="{" d="M45 -344q0 -49 57 -49h689q35 0 77 14q53 18 54 49q0 27 -65.5 34t-65.5 50q0 23 14 49l852 1475q23 41 69 69.5t86 28.5q35 0 76 15q55 18 56 49q0 35 -76 35h-688q-39 0 -85 -29t-69 -70l-965 -1671q-16 -27 -16 -49z" />
<glyph unicode="|" d="M10 -344q0 -49 58 -49h491q39 0 85 28.5t69 69.5l966 1671q14 27 15 49q0 49 -58 50h-491q-41 0 -86 -29t-68 -70l-966 -1671q-14 -27 -15 -49z" />
<glyph unicode="}" d="M16 -358q0 -35 74 -35h688q39 0 85 28.5t69 69.5l964 1671q16 27 17 49q0 49 -58 50h-688q-35 0 -75 -15q-55 -18 -56 -49q0 -25 65.5 -33t65.5 -51q0 -23 -14 -49l-852 -1475q-23 -41 -69 -69.5t-83.5 -28.5t-78.5 -14q-53 -18 -54 -49z" />
<glyph unicode="~" d="M-14 346q0 -49 55 -49h491q41 0 87.5 28.5t68.5 69.5l57 99q23 41 69 69.5t85 28.5h688q41 0 87 28.5t69 69.5l115 197q14 27 14 49q0 49 -57 49h-492q-41 0 -86 -28.5t-68 -69.5l-57 -99q-25 -41 -70 -69.5t-86 -28.5h-688q-41 0 -86 -28.5t-69 -69.5l-113 -197 q-14 -27 -14 -49z" />
<glyph unicode="&#xa1;" d="M-14 -344q0 -49 55 -49h491q41 0 87.5 28.5t68.5 69.5l737 1278q16 27 17 49q0 49 -58 49h-491q-41 0 -86 -28.5t-70 -69.5l-737 -1278q-14 -27 -14 -49zM950 1327q0 -49 56 -49h491q41 0 87 28.5t69 69.5l114 197q14 27 15 49q0 49 -58 49h-491q-41 0 -86 -28.5 t-68 -69.5l-114 -197q-14 -27 -15 -49z" />
<glyph unicode="&#xa2;" d="M-14 49q0 -49 55 -49q98 0 137 -63l273 -463q10 -18 28 -19q35 0 66 53l227 394q23 41 68 69.5t86 28.5h491q41 0 87 28.5t69 69.5l227 394q14 27 15 49q0 49 -56 49h-491q-41 0 -87 -29t-69 -69l-170 -295q-25 -41 -70 -70t-86 -29q-57 0 -57 49q0 23 16 50l398 688 q23 41 68.5 69.5t84.5 28.5q57 0 58 -49q0 -23 -15 -49l-57 -99q-14 -27 -14 -49q0 -49 55 -49h492q41 0 87 28.5t68 69.5l113 197q16 27 16 49q0 49 -57 49h-610q-20 0 -60 64l-270 463q-12 18 -31 18q-35 0 -65 -53l-226 -393q-43 -74 -135 -98.5t-135 -98.5l-510 -885 q-14 -27 -14 -49z" />
<glyph unicode="&#xa3;" horiz-adv-x="1628" d="M6 49q0 -49 57 -49h1377q68 0 67 41q0 12 -6 22l-272 463q-12 18 -31 19q-33 0 -63 -53l-172 -295q-23 -41 -69 -70t-85 -29q-57 0 -57 49q0 23 14 50l561 970q25 43 25 95q0 35 -13 55l-272 463q-10 18 -29 18q-35 0 -65 -53l-950 -1647q-16 -27 -17 -49z" />
<glyph unicode="&#xa6;" d="M-6 49q0 -49 57 -49h492q41 0 86 28.5t67 69.5l228 394q16 27 16 49q0 49 -57 49h-492q-41 0 -86 -29t-69 -69l-228 -394q-14 -27 -14 -49zM449 836q0 -49 55 -50h491q41 0 87 29t69 70l227 393q31 53 31 111q0 33 -12 51l-273 463q-10 18 -28 18q-35 0 -66 -53 l-567 -983q-14 -27 -14 -49z" />
<glyph unicode="&#xa7;" horiz-adv-x="1622" d="M-385 -555q0 -35 74 -35h1376q41 0 86 29t70 69l282 492q16 27 17 49q0 49 -58 49h-688q-74 0 -74 35q0 31 54 49q41 14 77 15h689q41 0 86 28.5t67 69.5l86 147q29 49 -10 113l-270 463q-39 63 -138 63q-57 0 -57 49q0 23 16 50l58 98q23 41 67.5 69.5t85.5 28.5 q57 0 58 -49q0 -18 -15.5 -49t-15.5 -49q0 -49 57 -49h492q100 0 156 98l88 162q0 35 -74 35h-1376q-41 0 -86 -29t-70 -70l-170 -295q-14 -27 -14 -49q0 -49 55 -49h491h197q57 0 57 -49q0 -23 -14 -49q-25 -41 -70 -70t-86 -29h-688q-41 0 -86 -28.5t-69 -69.5 q-31 -53 -31 -110q0 -33 12 -52l273 -463q37 -63 135 -63q57 0 57 -49q0 -23 -14 -49l-172 -295q-23 -41 -68 -70t-86 -29q-57 0 -57 50q0 23 14 49l58 98q16 27 16 49q0 49 -57 49h-492q-41 0 -86 -28.5t-70 -69.5l-141 -246q-4 -6 -4 -14zM813 330q0 8 4 14l144 246 q23 41 67.5 69.5t85.5 28.5q57 0 57 -49q0 -23 -14 -49l-143 -246q-29 -49 -127 -49q-74 0 -74 35z" />
<glyph unicode="&#xa8;" d="M-14 1229q0 -49 55 -49h491q41 0 87.5 28.5t68.5 69.5l57 98q14 27 15 49q0 49 -58 50h-491q-39 0 -85 -29t-69 -70l-57 -98q-14 -27 -14 -49zM870 1229q0 -49 56 -49h491q41 0 87 28.5t69 69.5l57 98q14 27 15 49q0 49 -58 50h-491q-39 0 -85 -29t-69 -70l-57 -98 q-14 -27 -15 -49z" />
<glyph unicode="&#xab;" d="M-12 479q0 -33 12 -51l272 -463q10 -18 29 -18q35 0 66 53l567 983q16 27 16 49q0 49 -57 49h-492q-41 0 -86 -28.5t-69 -69.5l-228 -393q-31 -53 -30 -111zM872 479q0 -33 13 -51l272 -463q10 -18 29 -18q35 0 65 53l568 983q16 27 16 49q0 49 -57 49h-492 q-41 0 -86 -28.5t-70 -69.5l-227 -393q-31 -53 -31 -111z" />
<glyph unicode="&#xad;" horiz-adv-x="1716" d="M197 342q0 -49 55 -49h1376q41 0 87 28.5t69 69.5l227 393q14 27 14 50q0 49 -55 49h-1376q-41 0 -87 -29t-69 -70l-227 -393q-14 -27 -14 -49z" />
<glyph unicode="&#xb0;" d="M-14 1130q0 -49 55 -49h1376q41 0 87 29t69 70l113 196q16 27 16 49q0 49 -57 50h-1377q-41 0 -86 -29t-69 -70l-113 -196q-14 -27 -14 -50zM729 1229q0 23 16 49q23 41 69 69.5t85 28.5q57 0 57 -49q0 -23 -14 -49q-25 -41 -70 -69.5t-86 -28.5q-57 0 -57 49z" />
<glyph unicode="&#xb1;" d="M-14 -541q0 -49 55 -49h1376q41 0 87 29t69 69l227 394q14 27 15 49q0 49 -56 49h-1376q-41 0 -87 -28.5t-69 -69.5l-227 -394q-14 -27 -14 -49zM608 541q0 -49 58 -49h245q57 0 58 -50q0 -23 -17 -49l-141 -246q-4 -6 -4 -14q0 -35 74 -35h491q98 0 127 49l141 246 q25 41 70 70t86 29h246q41 0 86 28.5t70 69.5l227 393q14 27 14 49q0 49 -57 49h-246q-55 0 -55 49q0 23 14 50l115 196q14 27 14 49q0 49 -57 50h-492q-41 0 -86 -29t-67 -70l-115 -196q-23 -41 -69 -70t-87 -29h-245q-39 0 -85.5 -28.5t-68.5 -69.5l-227 -393 q-16 -27 -17 -49z" />
<glyph unicode="&#xb4;" horiz-adv-x="737" d="M623 1130q0 -49 55 -49h491q68 0 68 41q0 12 -6 23l-273 463q-10 18 -30 18q-33 0 -64 -53l-227 -393q-14 -27 -14 -50z" />
<glyph unicode="&#xb6;" d="M238 442q0 -49 55 -49h688q57 0 57 -49q0 -23 -16 -49l-553 -959q-31 -53 -31 -110q0 -33 13 -51l272 -463q10 -18 29 -19q35 0 65 54l1518 2629q16 27 16 49q0 49 -57 50h-1376q-41 0 -86.5 -29t-69.5 -70l-510 -884q-14 -27 -14 -50zM981 541q0 23 16 49l398 688 q23 41 68.5 69.5t84.5 28.5q57 0 58 -49q0 -23 -15 -49l-397 -688q-25 -41 -70 -69.5t-86 -28.5q-57 0 -57 49z" />
<glyph unicode="&#xbb;" d="M-14 49q0 -49 55 -49h491q41 0 87.5 28.5t68.5 69.5l227 394q31 53 31 110q0 33 -12 51l-272 463q-10 18 -29 19q-35 0 -66 -54l-567 -983q-14 -27 -14 -49zM870 49q0 -49 56 -49h491q41 0 87 28.5t69 69.5l227 394q31 53 31 110q0 33 -12 51l-273 463q-10 18 -28 19 q-35 0 -66 -54l-567 -983q-14 -27 -15 -49z" />
<glyph unicode="&#xbf;" d="M-14 -344q0 -49 55 -49h1376q41 0 87 28.5t69 69.5l227 393q14 27 15 49q0 49 -56 50h-491q-41 0 -87 -29t-69 -70l-170 -295q-25 -41 -70 -69.5t-86 -28.5q-57 0 -57 49q0 23 16 49l283 492q25 41 70 69.5t86 28.5h246q41 0 86 29t69 70l283 491q16 27 16 49 q0 49 -57 49h-492q-41 0 -86 -28.5t-69 -69.5l-113 -197q-25 -41 -70 -69.5t-86 -28.5h-245q-41 0 -86 -28.5t-70 -69.5l-510 -885q-14 -27 -14 -49zM1393 1327q0 -49 55 -49h491q41 0 87.5 28.5t68.5 69.5l115 197q14 27 14 49q0 49 -57 49h-492q-41 0 -86 -28.5t-67 -69.5 l-115 -197q-14 -27 -14 -49z" />
<glyph unicode="&#xc4;" d="M-6 49q0 -49 57 -49h1376q41 0 86.5 28.5t67.5 69.5l512 885q14 27 14 49q0 49 -55 49h-688h-688q-41 0 -87 -28.5t-69 -69.5l-114 -197q-14 -27 -15 -49q0 -49 58 -49h491q41 0 86 28.5t68 69.5l57 99q25 41 70 69.5t86 28.5q57 0 57 -49q0 -23 -16 -49l-113 -197 q-25 -41 -70 -69.5t-86 -28.5h-688q-41 0 -86 -29t-69 -69l-228 -394q-14 -27 -14 -49zM676 1229q0 -49 55 -49h492q41 0 87 28.5t68 69.5l58 98q14 27 14 49q0 49 -57 50h-492q-39 0 -85 -29t-68 -70l-58 -98q-14 -27 -14 -49zM739 147q0 23 15 50l114 196q23 41 69 70 t85 29q57 0 57 -50q0 -23 -14 -49l-115 -196q-23 -41 -68.5 -70t-86.5 -29q-55 0 -56 49zM1561 1229q0 -49 55 -49h491q41 0 87.5 28.5t68.5 69.5l57 98q14 27 15 49q0 49 -58 50h-491q-39 0 -85 -29t-69 -70l-57 -98q-14 -27 -14 -49z" />
<glyph unicode="&#xc5;" d="M10 49q0 -49 58 -49h1376q41 0 86 28.5t69 69.5l510 885q16 27 17 49q0 49 -58 49h-688h-688q-41 0 -86 -28.5t-69 -69.5l-113 -197q-16 -27 -16 -49q0 -49 57 -49h491q41 0 86 28.5t70 69.5l55 99q25 41 70 69.5t86 28.5q57 0 57 -49q0 -23 -16 -49l-113 -197 q-23 -41 -68.5 -69.5t-86.5 -28.5h-688q-41 0 -86.5 -29t-67.5 -69l-227 -394q-16 -27 -17 -49zM692 1229q0 -49 58 -49h1376q39 0 85 28.5t68 69.5l58 98q14 27 14 49q0 49 -55 50h-1376q-41 0 -87.5 -29t-68.5 -70l-57 -98q-14 -27 -15 -49zM756 147q0 23 14 50l115 196 q23 41 68.5 70t86.5 29q55 0 56 -50q0 -23 -15 -49l-114 -196q-23 -41 -69 -70t-85 -29q-57 0 -57 49zM1419 1313q0 31 54 49q43 14 77 14q74 0 74 -35q0 -31 -53 -49q-43 -14 -78 -14q-74 0 -74 35z" />
<glyph unicode="&#xc6;" d="M-14 49q0 -49 55 -49h2261q41 0 87 28.5t69 69.5l112 197q16 27 17 49q0 49 -58 49h-491q-41 0 -86 -28.5t-70 -69.5l-55 -98q-25 -41 -70 -70t-86 -29q-57 0 -57 49q0 23 16 50l113 196q25 41 69.5 70t85.5 29h689q41 0 86 28.5t69 69.5l226 393q16 27 16 49 q0 49 -57 49h-2261q-41 0 -86 -28.5t-70 -69.5l-113 -197q-14 -27 -14 -49q0 -49 55 -49h492q41 0 87 28.5t68 69.5l58 99q23 41 68.5 69.5t84.5 28.5q57 0 58 -49q0 -23 -15 -49l-114 -197q-23 -41 -69 -69.5t-85 -28.5h-688q-41 0 -87 -29t-69 -69l-227 -394 q-14 -27 -14 -49zM729 147q0 23 16 50l113 196q25 41 70 70t86 29q57 0 57 -50q0 -23 -16 -49l-113 -196q-25 -41 -70 -70t-86 -29q-57 0 -57 49zM1898 639q0 23 15 49l115 197q23 41 68.5 69.5t84.5 28.5q57 0 57 -49q0 -23 -14 -49l-115 -197q-23 -41 -68.5 -69.5 t-84.5 -28.5q-57 0 -58 49z" />
<glyph unicode="&#xc7;" d="M-6 49q0 -49 57 -49q98 0 135 -63l273 -463q12 -18 30 -19q33 0 64 53l227 394q25 41 70 69.5t86 28.5h491q41 0 86.5 28.5t69.5 69.5l225 394q16 27 17 49q0 49 -58 49h-491q-41 0 -86 -29t-70 -69l-170 -295q-23 -41 -68.5 -70t-84.5 -29q-57 0 -58 49q0 23 15 50 l397 688q25 41 70 69.5t86 28.5q57 0 57 -49q0 -23 -16 -49l-56 -99q-16 -27 -16 -49q0 -49 57 -49h492q41 0 86 28.5t69 69.5l113 197q14 27 14 49q0 49 -55 49h-1376q-41 0 -87 -28.5t-69 -69.5l-510 -885q-16 -27 -16 -49z" />
<glyph unicode="&#xc9;" d="M6 49q0 -49 57 -49h1377q41 0 86 28.5t69 69.5l113 197q14 27 14 49q0 49 -55 49h-491q-41 0 -87.5 -28.5t-68.5 -69.5l-57 -98q-23 -41 -69 -70t-85 -29q-57 0 -57 49q0 23 14 50l115 196q23 41 68.5 70t84.5 29h688q41 0 87 28.5t69 69.5l227 393q14 27 15 49 q0 49 -56 49q-98 0 -137 64l-272 463q-10 18 -29 18q-35 0 -65 -53l-228 -393q-23 -41 -67.5 -70t-85.5 -29h-492q-41 0 -87 -28.5t-69 -69.5l-509 -885q-16 -27 -17 -49zM1036 639q0 23 15 49l112 197q25 41 70 69.5t86 28.5q57 0 57 -49q0 -23 -16 -49l-113 -197 q-25 -41 -69.5 -69.5t-85.5 -28.5q-55 0 -56 49z" />
<glyph unicode="&#xd0;" d="M-8 49q0 -49 57 -49h1376q41 0 86 28.5t70 69.5l617 1069q25 43 24 95q0 35 -12 55l-273 463q-12 18 -30 18q-33 0 -64 -53l-100 -172q-23 -41 -69 -69.5t-85 -28.5q-41 0 -87 -29t-68 -70q-16 -27 -17 -49q0 -49 58 -49q57 0 57 -49q0 -23 -16 -49q-23 -41 -69 -70 t-85 -29h-688q-41 0 -87 -28.5t-69 -69.5l-510 -885q-16 -27 -16 -49zM737 147q0 23 15 50l397 688q25 41 70 69.5t86 28.5q57 0 57 -49q0 -23 -16 -49l-398 -688q-23 -41 -68.5 -70t-84.5 -29q-57 0 -58 49z" />
<glyph unicode="&#xd1;" d="M18 49q0 -49 56 -49h491q41 0 87 28.5t69 69.5l455 787q23 41 68.5 69.5t84.5 28.5q57 0 57 -49q0 -23 -14 -49l-454 -787q-14 -27 -15 -49q0 -49 55 -49h492q41 0 87 28.5t69 69.5l510 885q16 27 16 49q0 49 -57 49h-689h-688q-41 0 -86 -28.5t-69 -69.5l-510 -885 q-14 -27 -15 -49zM698 1229q0 -49 58 -49h491q41 0 86 28.5t70 69.5q23 41 68 69.5t85 28.5h689q41 0 87 29t68 70l58 98q14 27 14 49q0 49 -57 49h-492q-39 0 -85 -28.5t-69 -69.5q-25 -41 -69.5 -69.5t-85.5 -28.5h-688q-41 0 -86 -29t-70 -70l-55 -98q-16 -27 -17 -49z " />
<glyph unicode="&#xd6;" d="M-14 49q0 -49 55 -49h1376q41 0 87 28.5t69 69.5l510 885q16 27 16 49q0 49 -57 49h-688h-688q-41 0 -86 -28.5t-70 -69.5l-510 -885q-14 -27 -14 -49zM666 1229q0 -49 57 -49h491q41 0 86.5 28.5t69.5 69.5l55 98q16 27 17 49q0 49 -58 50h-491q-41 0 -86 -29t-70 -70 l-55 -98q-16 -27 -16 -49zM729 147q0 23 16 50l398 688q23 41 68.5 69.5t84.5 28.5q57 0 58 -49q0 -23 -15 -49l-397 -688q-25 -41 -70 -70t-86 -29q-57 0 -57 49zM1550 1229q0 -49 58 -49h491q41 0 86 28.5t70 69.5l55 98q16 27 17 49q0 49 -58 50h-491q-41 0 -86 -29 t-70 -70l-55 -98q-16 -27 -17 -49z" />
<glyph unicode="&#xd8;" d="M0 49q0 -49 57 -49h1377q39 0 85 28.5t68 69.5l512 885q14 27 15 49q0 49 -58 49h-1376q-39 0 -85 -28.5t-69 -69.5l-512 -885q-14 -27 -14 -49zM745 147q0 23 15 50l112 196q25 41 70 70t86 29q57 0 57 -50q0 -23 -16 -49l-113 -196q-23 -41 -68.5 -70t-86.5 -29 q-55 0 -56 49zM1028 639q0 23 16 49l113 197q23 41 69 69.5t87 28.5q55 0 55 -49q0 -23 -14 -49l-113 -197q-25 -41 -70 -69.5t-86 -28.5q-57 0 -57 49z" />
<glyph unicode="&#xdc;" d="M-14 49q0 -49 55 -49h1376q41 0 87 28.5t69 69.5l510 885q16 27 16 49q0 49 -57 49h-688h-688q-41 0 -86 -28.5t-70 -69.5l-510 -885q-14 -27 -14 -49zM666 1229q0 -49 57 -49h491q41 0 86.5 28.5t69.5 69.5l55 98q16 27 17 49q0 49 -58 50h-491q-41 0 -86 -29t-70 -70 l-55 -98q-16 -27 -16 -49zM729 147q0 23 16 50l398 688q23 41 68.5 69.5t84.5 28.5q57 0 58 -49q0 -23 -15 -49l-397 -688q-25 -41 -70 -70t-86 -29q-57 0 -57 49zM1550 1229q0 -49 58 -49h491q41 0 86 28.5t70 69.5l55 98q16 27 17 49q0 49 -58 50h-491q-41 0 -86 -29 t-70 -70l-55 -98q-16 -27 -17 -49z" />
<glyph unicode="&#xde;" d="M-12 -180q0 -35 12 -56l272 -462q10 -18 29 -19q35 0 66 53l325 566q25 41 70 69.5t86 28.5h686q41 0 87 28.5t69 69.5l512 885q14 27 14 49q0 49 -57 49h-686q-61 0 -62 47q0 18 12 39q25 43 25 95q0 35 -12 55l-273 463q-10 18 -28 18q-35 0 -66 -53l-1057 -1831 q-25 -43 -24 -94zM848 147q0 23 16 50l398 688q23 41 67.5 69.5t85.5 28.5q55 0 55 -49q0 -23 -14 -49l-397 -688q-25 -41 -70 -70t-84 -29q-57 0 -57 49z" />
<glyph unicode="&#xe0;" d="M-14 49q0 -49 55 -49h1376q41 0 87 28.5t69 69.5l510 885q16 27 16 49q0 49 -57 49q-98 0 -135 64l-273 463q-12 18 -30 18q-33 0 -64 -53l-227 -393q-25 -41 -70 -70t-86 -29h-491q-41 0 -86 -28.5t-70 -69.5l-113 -197q-14 -27 -14 -49q0 -49 55 -49h492q41 0 87 28.5 t68 69.5l58 99q23 41 68.5 69.5t84.5 28.5q57 0 58 -49q0 -23 -15 -49l-114 -197q-23 -41 -69 -69.5t-85 -28.5h-688q-41 0 -87 -29t-69 -69l-227 -394q-14 -27 -14 -49zM729 147q0 23 16 50l113 196q25 41 70 70t86 29q57 0 57 -50q0 -23 -16 -49l-113 -196 q-25 -41 -70 -70t-86 -29q-57 0 -57 49z" />
<glyph unicode="&#xe1;" d="M-14 49q0 -49 57 -49h1376q41 0 86 28.5t70 69.5l510 885q16 27 16 49q0 49 -57 49q-98 0 -135 64l-273 463q-12 18 -30 18q-35 0 -66 -53l-225 -393q-25 -41 -70 -70t-86 -29h-491q-41 0 -86 -28.5t-70 -69.5l-113 -197q-16 -27 -16 -49q0 -49 57 -49h492q41 0 86 28.5 t69 69.5l56 99q25 41 69.5 69.5t85.5 28.5q57 0 58 -49q0 -23 -17 -49l-112 -197q-23 -41 -69 -69.5t-87 -28.5h-688q-39 0 -85 -29t-69 -69l-227 -394q-16 -27 -16 -49zM731 147q0 23 14 50l115 196q23 41 69 70t87 29q55 0 55 -50q0 -23 -14 -49l-113 -196 q-25 -41 -70 -70t-86 -29q-57 0 -57 49z" />
<glyph unicode="&#xe2;" d="M-14 49q0 -49 55 -49h1376q41 0 87 28.5t69 69.5l510 885q16 27 16 49q0 49 -57 49h-688h-688q-41 0 -86 -28.5t-70 -69.5l-113 -197q-14 -27 -14 -49q0 -49 55 -49h492q41 0 87 28.5t68 69.5l58 99q23 41 68.5 69.5t84.5 28.5q57 0 58 -49q0 -23 -15 -49l-114 -197 q-23 -41 -69 -69.5t-85 -28.5h-688q-41 0 -87 -29t-69 -69l-227 -394q-14 -27 -14 -49zM729 147q0 23 16 50l113 196q25 41 70 70t86 29q57 0 57 -50q0 -23 -16 -49l-113 -196q-25 -41 -70 -70t-86 -29q-57 0 -57 49zM1135 1630q0 -10 8 -22l272 -463q10 -18 29 -19 q35 0 65 54l228 393q14 27 14 49q0 49 -57 49h-492q-68 0 -67 -41zM1823 1630q0 -10 8 -22l272 -463q10 -18 29 -19q35 0 66 54l227 393q14 27 14 49q0 49 -57 49h-492q-68 0 -67 -41z" />
<glyph unicode="&#xe3;" d="M-14 49q0 -49 55 -49h1376q41 0 87 28.5t69 69.5l510 885q16 27 16 49q0 49 -57 49h-688h-688q-41 0 -86 -28.5t-70 -69.5l-113 -197q-14 -27 -14 -49q0 -49 55 -49h492q41 0 87 28.5t68 69.5l58 99q23 41 68.5 69.5t84.5 28.5q57 0 58 -49q0 -23 -15 -49l-114 -197 q-23 -41 -69 -69.5t-85 -28.5h-688q-41 0 -87 -29t-69 -69l-227 -394q-14 -27 -14 -49zM666 1229q0 -49 57 -49h491q41 0 86.5 28.5t69.5 69.5q23 41 68 69.5t86 28.5h688q41 0 87 29t68 70l58 98q14 27 14 49q0 49 -57 49h-492q-39 0 -85 -28.5t-68 -69.5 q-25 -41 -70 -69.5t-86 -28.5h-688q-41 0 -86 -29t-70 -70l-55 -98q-16 -27 -16 -49zM729 147q0 23 16 50l113 196q25 41 70 70t86 29q57 0 57 -50q0 -23 -16 -49l-113 -196q-25 -41 -70 -70t-86 -29q-57 0 -57 49z" />
<glyph unicode="&#xe4;" horiz-adv-x="1628" d="M-10 49q0 -49 57 -49h1376q39 0 85 28.5t69 69.5l512 885q14 27 14 49q0 49 -55 49h-688h-688q-41 0 -87 -28.5t-69 -69.5l-115 -197q-14 -27 -14 -49q0 -49 57 -49h492q39 0 85 28.5t69 69.5l57 99q25 41 70 69.5t86 28.5q55 0 55 -49q0 -23 -15 -49l-112 -197 q-25 -41 -70 -69.5t-86 -28.5h-688q-41 0 -86 -29t-70 -69l-227 -394q-14 -27 -14 -49zM672 1229q0 -49 55 -49h492q41 0 87 28.5t68 69.5l58 98q14 27 14 49q0 49 -57 50h-492q-39 0 -85 -29t-69 -70l-57 -98q-14 -27 -14 -49zM735 147q0 23 15 50l114 196q23 41 68 70 t86 29q57 0 57 -50q0 -23 -14 -49l-115 -196q-23 -41 -69 -70t-86 -29q-55 0 -56 49zM1556 1229q0 -49 56 -49h491q41 0 87 28.5t69 69.5l57 98q14 27 15 49q0 49 -58 50h-491q-39 0 -85 -29t-69 -70l-57 -98q-14 -27 -15 -49z" />
<glyph unicode="&#xe5;" horiz-adv-x="1648" d="M-10 49q0 -49 57 -49h1376q39 0 85 28.5t69 69.5l512 885q14 27 14 49q0 49 -55 49h-688h-688q-41 0 -87 -28.5t-69 -69.5l-115 -197q-14 -27 -14 -49q0 -49 57 -49h492q39 0 85 28.5t69 69.5l57 99q25 41 70 69.5t86 28.5q55 0 55 -49q0 -23 -15 -49l-112 -197 q-25 -41 -70 -69.5t-86 -28.5h-688q-41 0 -86 -29t-70 -69l-227 -394q-14 -27 -14 -49zM672 1229q0 -49 55 -49h1376q41 0 87 28.5t69 69.5l57 98q14 27 15 49q0 49 -58 50h-1376q-39 0 -85 -29t-69 -70l-57 -98q-14 -27 -14 -49zM735 147q0 23 15 50l114 196q23 41 68 70 t86 29q57 0 57 -50q0 -23 -14 -49l-115 -196q-23 -41 -69 -70t-86 -29q-55 0 -56 49zM1399 1313q0 31 53 49q41 14 78 14q74 0 74 -35q0 -31 -54 -49q-42 -14 -77 -14q-74 0 -74 35z" />
<glyph unicode="&#xe6;" horiz-adv-x="2547" d="M-10 49q0 -49 57 -49h2261q39 0 85 28.5t69 69.5l114 197q14 27 15 49q0 49 -56 49h-491q-41 0 -87 -28.5t-69 -69.5l-57 -98q-23 -41 -69 -70t-87 -29q-55 0 -55 49q0 23 14 50l115 196q23 41 68 70t86 29h688q41 0 87 28.5t68 69.5l228 393q14 27 14 49q0 49 -55 49 h-2261q-41 0 -87 -28.5t-69 -69.5l-115 -197q-14 -27 -14 -49q0 -49 57 -49h492q39 0 85 28.5t69 69.5l57 99q25 41 70 69.5t86 28.5q55 0 55 -49q0 -23 -15 -49l-112 -197q-25 -41 -70 -69.5t-86 -28.5h-688q-41 0 -86 -29t-70 -69l-227 -394q-14 -27 -14 -49zM735 147 q0 23 15 50l114 196q23 41 68 70t86 29q57 0 57 -50q0 -23 -14 -49l-115 -196q-23 -41 -69 -70t-86 -29q-55 0 -56 49zM1903 639q0 23 16 49l113 197q25 41 69.5 69.5t85.5 28.5q55 0 56 -49q0 -23 -15 -49l-112 -197q-25 -41 -70 -69.5t-86 -28.5q-57 0 -57 49z" />
<glyph unicode="&#xe7;" d="M-14 49q0 -49 55 -49q98 0 137 -63l273 -463q10 -18 28 -19q35 0 66 53l227 394q23 41 68 69.5t86 28.5h491q41 0 87 28.5t69 69.5l227 394q14 27 15 49q0 49 -56 49h-491q-41 0 -87 -29t-69 -69l-170 -295q-25 -41 -70 -70t-86 -29q-57 0 -57 49q0 23 16 50l398 688 q23 41 68.5 69.5t84.5 28.5q57 0 58 -49q0 -23 -15 -49l-57 -99q-14 -27 -14 -49q0 -49 55 -49h492q41 0 87 28.5t68 69.5l113 197q16 27 16 49q0 49 -57 49h-1376q-41 0 -86 -28.5t-70 -69.5l-510 -885q-14 -27 -14 -49z" />
<glyph unicode="&#xe8;" d="M-14 49q0 -49 55 -49h1376q41 0 87 28.5t69 69.5l113 197q16 27 16 49q0 49 -57 49h-492q-41 0 -86 -28.5t-70 -69.5l-55 -98q-25 -41 -70 -70t-86 -29q-57 0 -57 49q0 23 16 50l113 196q25 41 70 70t86 29h688q41 0 86 28.5t70 69.5l225 393q16 27 16 49q0 49 -57 49 q-98 0 -135 64l-273 463q-12 18 -30 18q-33 0 -64 -53l-227 -393q-25 -41 -70 -70t-86 -29h-491q-41 0 -86 -28.5t-70 -69.5l-510 -885q-14 -27 -14 -49zM1014 639q0 23 14 49l115 197q23 41 68.5 69.5t84.5 28.5q57 0 58 -49q0 -23 -15 -49l-114 -197q-23 -41 -69 -69.5 t-85 -28.5q-57 0 -57 49z" />
<glyph unicode="&#xe9;" d="M-14 49q0 -49 55 -49h1376q41 0 87 28.5t69 69.5l113 197q16 27 16 49q0 49 -57 49h-492q-41 0 -86 -28.5t-70 -69.5l-55 -98q-25 -41 -70 -70t-86 -29q-57 0 -57 49q0 23 16 50l113 196q25 41 70 70t86 29h688q41 0 86 28.5t70 69.5l225 393q16 27 16 49q0 49 -57 49 q-98 0 -135 64l-273 463q-12 18 -30 18q-33 0 -64 -53l-227 -393q-25 -41 -70 -70t-86 -29h-491q-41 0 -86 -28.5t-70 -69.5l-510 -885q-14 -27 -14 -49zM1014 639q0 23 14 49l115 197q23 41 68.5 69.5t84.5 28.5q57 0 58 -49q0 -23 -15 -49l-114 -197q-23 -41 -69 -69.5 t-85 -28.5q-57 0 -57 49z" />
<glyph unicode="&#xea;" d="M-14 49q0 -49 55 -49h1376q41 0 87 28.5t69 69.5l113 197q16 27 16 49q0 49 -57 49h-492q-41 0 -86 -28.5t-70 -69.5l-55 -98q-25 -41 -70 -70t-86 -29q-57 0 -57 49q0 23 16 50l113 196q25 41 70 70t86 29h688q41 0 86 28.5t70 69.5l225 393q31 53 31 111q0 33 -11 51 l-272 463q-12 18 -31 18q-33 0 -63 -53l-228 -393q-31 -53 -65 -54q-18 0 -29 19l-272 463q-12 18 -31 18q-33 0 -63 -53l-228 -393q-25 -41 -69.5 -70t-85.5 -29t-86 -28.5t-70 -69.5l-510 -885q-14 -27 -14 -49zM1014 639q0 23 14 49l115 197q23 41 68.5 69.5t84.5 28.5 q57 0 58 -49q0 -23 -15 -49l-114 -197q-23 -41 -69 -69.5t-85 -28.5q-57 0 -57 49z" />
<glyph unicode="&#xeb;" d="M-14 49q0 -49 55 -49h1376q41 0 87 28.5t69 69.5l113 197q16 27 16 49q0 49 -57 49h-492q-41 0 -86 -28.5t-70 -69.5l-55 -98q-25 -41 -70 -70t-86 -29q-57 0 -57 49q0 23 16 50l113 196q25 41 70 70t86 29h688q41 0 86 28.5t70 69.5l225 393q16 27 16 49q0 49 -57 49 h-688h-688q-41 0 -86 -28.5t-70 -69.5l-510 -885q-14 -27 -14 -49zM666 1229q0 -49 57 -49h491q41 0 86.5 28.5t69.5 69.5l55 98q16 27 17 49q0 49 -58 50h-491q-41 0 -86 -29t-70 -70l-55 -98q-16 -27 -16 -49zM1014 639q0 23 14 49l115 197q23 41 68.5 69.5t84.5 28.5 q57 0 58 -49q0 -23 -15 -49l-114 -197q-23 -41 -69 -69.5t-85 -28.5q-57 0 -57 49zM1550 1229q0 -49 58 -49h491q41 0 86 28.5t70 69.5l55 98q16 27 17 49q0 49 -58 50h-491q-41 0 -86 -29t-70 -70l-55 -98q-16 -27 -17 -49z" />
<glyph unicode="&#xec;" d="M-14 49q0 -49 55 -49h491q41 0 87.5 28.5t68.5 69.5l510 885q16 27 16 49q0 49 -57 49h-491q-41 0 -86 -28.5t-70 -69.5l-510 -885q-14 -27 -14 -49zM666 1229q0 -49 57 -49h491q68 0 68 41q0 12 -8 22l-270 463q-12 18 -31 18q-35 0 -66 -53l-225 -393q-16 -27 -16 -49z " />
<glyph unicode="&#xed;" d="M-14 49q0 -49 55 -49h491q41 0 87.5 28.5t68.5 69.5l510 885q16 27 16 49q0 49 -57 49h-491q-41 0 -86 -28.5t-70 -69.5l-510 -885q-14 -27 -14 -49zM666 1229q0 -49 57 -49h491q68 0 68 41q0 12 -8 22l-270 463q-12 18 -31 18q-35 0 -66 -53l-225 -393q-16 -27 -16 -49z " />
<glyph unicode="&#xee;" d="M-14 49q0 -49 55 -49h491q41 0 87.5 28.5t68.5 69.5l510 885q16 27 16 49q0 49 -57 49h-491q-41 0 -86 -28.5t-70 -69.5l-510 -885q-14 -27 -14 -49zM666 1229q0 -49 57 -49h491q68 0 68 41q0 12 -8 22l-270 463q-12 18 -31 18q-35 0 -66 -53l-225 -393q-16 -27 -16 -49z M1083 1880q0 -12 7 -22l272 -463q10 -18 31 -19q33 0 63 54l227 393q14 27 15 49q0 49 -56 49h-491q-68 0 -68 -41z" />
<glyph unicode="&#xef;" d="M-14 49q0 -49 55 -49h491q41 0 87.5 28.5t68.5 69.5l510 885q16 27 16 49q0 49 -57 49h-491q-41 0 -86 -28.5t-70 -69.5l-510 -885q-14 -27 -14 -49zM666 1229q0 -49 57 -49h491q68 0 68 41q0 12 -8 22l-270 463q-12 18 -31 18q-35 0 -66 -53l-225 -393q-16 -27 -16 -49z M1083 1880q0 -12 7 -22l272 -463q10 -18 31 -19q33 0 63 54l227 393q14 27 15 49q0 49 -56 49h-491q-68 0 -68 -41z" />
<glyph unicode="&#xf0;" d="M-8 49q0 -49 57 -49h1376q41 0 86 28.5t70 69.5l617 1069q25 43 24 95q0 35 -12 55l-273 463q-12 18 -30 18q-33 0 -64 -53l-100 -172q-23 -41 -69 -69.5t-85 -28.5q-41 0 -87 -29t-68 -70q-16 -27 -17 -49q0 -49 58 -49q57 0 57 -49q0 -23 -16 -49q-23 -41 -69 -70 t-85 -29h-688q-41 0 -87 -28.5t-69 -69.5l-510 -885q-16 -27 -16 -49zM737 147q0 23 15 50l397 688q25 41 70 69.5t86 28.5q57 0 57 -49q0 -23 -16 -49l-398 -688q-23 -41 -68.5 -70t-84.5 -29q-57 0 -58 49z" />
<glyph unicode="&#xf1;" d="M-14 49q0 -49 55 -49h491q41 0 87.5 28.5t68.5 69.5l455 787q23 41 68.5 69.5t84.5 28.5q57 0 58 -49q0 -23 -15 -49l-454 -787q-14 -27 -15 -49q0 -49 56 -49h491q41 0 87 28.5t69 69.5l510 885q16 27 16 49q0 49 -57 49h-688h-688q-41 0 -86 -28.5t-70 -69.5l-510 -885 q-14 -27 -14 -49zM666 1229q0 -49 57 -49h491q41 0 86.5 28.5t69.5 69.5q23 41 68 69.5t86 28.5h688q41 0 87 29t68 70l58 98q14 27 14 49q0 49 -57 49h-492q-39 0 -85 -28.5t-68 -69.5q-25 -41 -70 -69.5t-86 -28.5h-688q-41 0 -86 -29t-70 -70l-55 -98q-16 -27 -16 -49z " />
<glyph unicode="&#xf2;" d="M-14 49q0 -49 55 -49h1376q41 0 87 28.5t69 69.5l510 885q16 27 16 49q0 49 -57 49q-98 0 -135 64l-273 463q-12 18 -30 18q-33 0 -64 -53l-227 -393q-25 -41 -70 -70t-86 -29h-491q-41 0 -86 -28.5t-70 -69.5l-510 -885q-14 -27 -14 -49zM729 147q0 23 16 50l398 688 q23 41 68.5 69.5t84.5 28.5q57 0 58 -49q0 -23 -15 -49l-397 -688q-25 -41 -70 -70t-86 -29q-57 0 -57 49z" />
<glyph unicode="&#xf3;" d="M-14 49q0 -49 55 -49h1376q41 0 87 28.5t69 69.5l510 885q16 27 16 49q0 49 -57 49q-98 0 -135 64l-273 463q-12 18 -30 18q-33 0 -64 -53l-227 -393q-25 -41 -70 -70t-86 -29h-491q-41 0 -86 -28.5t-70 -69.5l-510 -885q-14 -27 -14 -49zM729 147q0 23 16 50l398 688 q23 41 68.5 69.5t84.5 28.5q57 0 58 -49q0 -23 -15 -49l-397 -688q-25 -41 -70 -70t-86 -29q-57 0 -57 49z" />
<glyph unicode="&#xf4;" d="M6 49q0 -49 57 -49h1377q39 0 85 28.5t68 69.5l512 885q31 53 31 111q0 33 -12 51l-273 463q-10 18 -28 18q-35 0 -66 -53l-227 -393q-31 -53 -66 -54q-18 0 -28 19l-273 463q-10 18 -28 18q-35 0 -66 -53l-227 -393q-41 -74 -155 -98.5t-155 -98.5l-512 -885 q-14 -27 -14 -49zM752 147q0 23 14 50l397 688q23 41 69 69.5t87 28.5q55 0 55 -49q0 -23 -14 -49l-397 -688q-23 -41 -69 -70t-87 -29q-55 0 -55 49z" />
<glyph unicode="&#xf5;" d="M-14 49q0 -49 55 -49h1376q41 0 87 28.5t69 69.5l510 885q16 27 16 49q0 49 -57 49h-688h-688q-41 0 -86 -28.5t-70 -69.5l-510 -885q-14 -27 -14 -49zM666 1229q0 -49 57 -49h491q41 0 86.5 28.5t69.5 69.5q23 41 68 69.5t86 28.5h688q41 0 87 29t68 70l58 98 q14 27 14 49q0 49 -57 49h-492q-39 0 -85 -28.5t-68 -69.5q-25 -41 -70 -69.5t-86 -28.5h-688q-41 0 -86 -29t-70 -70l-55 -98q-16 -27 -16 -49zM729 147q0 23 16 50l398 688q23 41 68.5 69.5t84.5 28.5q57 0 58 -49q0 -23 -15 -49l-397 -688q-25 -41 -70 -70t-86 -29 q-57 0 -57 49z" />
<glyph unicode="&#xf6;" d="M-14 49q0 -49 55 -49h1376q41 0 87 28.5t69 69.5l510 885q16 27 16 49q0 49 -57 49h-688h-688q-41 0 -86 -28.5t-70 -69.5l-510 -885q-14 -27 -14 -49zM666 1229q0 -49 57 -49h491q41 0 86.5 28.5t69.5 69.5l55 98q16 27 17 49q0 49 -58 50h-491q-41 0 -86 -29t-70 -70 l-55 -98q-16 -27 -16 -49zM729 147q0 23 16 50l398 688q23 41 68.5 69.5t84.5 28.5q57 0 58 -49q0 -23 -15 -49l-397 -688q-25 -41 -70 -70t-86 -29q-57 0 -57 49zM1550 1229q0 -49 58 -49h491q41 0 86 28.5t70 69.5l55 98q16 27 17 49q0 49 -58 50h-491q-41 0 -86 -29 t-70 -70l-55 -98q-16 -27 -17 -49z" />
<glyph unicode="&#xf7;" d="M-14 442q0 -49 55 -49h1376q41 0 87 29t69 70l113 196q16 27 16 49q0 49 -57 49h-1377q-41 0 -86 -28.5t-69 -69.5l-113 -196q-14 -27 -14 -50zM104 -172q0 -78 53.5 -125t145.5 -47q143 0 302 100.5t241 243.5q53 92 53 172q0 78 -52.5 125t-146.5 47 q-141 0 -299.5 -100.5t-242.5 -243.5q-53 -92 -54 -172zM786 1008q0 -78 52.5 -125t146.5 -47q143 0 302 100t241 244q53 92 53 172q0 78 -52 125t-147 47q-143 0 -301.5 -100.5t-240.5 -243.5q-53 -92 -54 -172z" />
<glyph unicode="&#xf8;" horiz-adv-x="1648" d="M-20 49q0 -49 57 -49h1376q39 0 85 28.5t69 69.5l512 885q14 27 14 49q0 49 -55 49h-1376q-41 0 -87.5 -28.5t-68.5 -69.5l-512 -885q-14 -27 -14 -49zM725 147q0 23 14 50l115 196q23 41 68 70t86 29q57 0 57 -50q0 -23 -14 -49l-115 -196q-23 -41 -69 -70t-87 -29 q-55 0 -55 49zM1008 639q0 23 16 49l113 197q25 41 69.5 69.5t85.5 28.5q55 0 56 -49q0 -23 -15 -49l-112 -197q-25 -41 -70 -69.5t-86 -28.5q-57 0 -57 49z" />
<glyph unicode="&#xf9;" d="M-14 49q0 -49 55 -49h1376q41 0 87 28.5t69 69.5l510 885q16 27 16 49q0 49 -57 49h-492q-41 0 -86 -28.5t-69 -69.5l-453 -786q-25 -41 -70 -70t-86 -29q-57 0 -57 49q0 23 16 50l453 786q16 27 16 49q0 49 -57 49h-491q-41 0 -86 -28.5t-70 -69.5l-510 -885 q-14 -27 -14 -49zM1354 1229q0 -49 57 -49h492q68 0 67 41q0 12 -8 22l-270 463q-12 18 -31 18q-35 0 -66 -53l-225 -393q-16 -27 -16 -49z" />
<glyph unicode="&#xfa;" d="M-14 49q0 -49 55 -49h1376q41 0 87 28.5t69 69.5l510 885q16 27 16 49q0 49 -57 49h-492q-41 0 -86 -28.5t-69 -69.5l-453 -786q-25 -41 -70 -70t-86 -29q-57 0 -57 49q0 23 16 50l453 786q16 27 16 49q0 49 -57 49h-491q-41 0 -86 -28.5t-70 -69.5l-510 -885 q-14 -27 -14 -49zM1354 1229q0 -49 57 -49h492q68 0 67 41q0 12 -8 22l-270 463q-12 18 -31 18q-35 0 -66 -53l-225 -393q-16 -27 -16 -49z" />
<glyph unicode="&#xfb;" d="M-14 49q0 -49 55 -49h1376q41 0 87 28.5t69 69.5l510 885q16 27 16 49q0 49 -57 49h-492q-41 0 -86 -28.5t-69 -69.5l-453 -786q-25 -41 -70 -70t-86 -29q-57 0 -57 49q0 23 16 50l453 786q16 27 16 49q0 49 -57 49h-491q-41 0 -86 -28.5t-70 -69.5l-510 -885 q-14 -27 -14 -49zM862 1229q0 -49 58 -49h491q68 0 68 41q0 12 -9 22l-270 463q-12 18 -31 18q-35 0 -65 -53l-225 -393q-16 -27 -17 -49zM1550 1229q0 -49 58 -49h491q68 0 68 41q0 12 -8 22l-271 463q-12 18 -30 18q-35 0 -66 -53l-225 -393q-16 -27 -17 -49z" />
<glyph unicode="&#xfc;" d="M-14 49q0 -49 55 -49h1376q41 0 87 28.5t69 69.5l510 885q16 27 16 49q0 49 -57 49h-492q-41 0 -86 -28.5t-69 -69.5l-453 -786q-25 -41 -70 -70t-86 -29q-57 0 -57 49q0 23 16 50l453 786q16 27 16 49q0 49 -57 49h-491q-41 0 -86 -28.5t-70 -69.5l-510 -885 q-14 -27 -14 -49zM666 1229q0 -49 57 -49h491q41 0 86.5 28.5t69.5 69.5l55 98q16 27 17 49q0 49 -58 50h-491q-41 0 -86 -29t-70 -70l-55 -98q-16 -27 -16 -49zM1550 1229q0 -49 58 -49h491q41 0 86 28.5t70 69.5l55 98q16 27 17 49q0 49 -58 50h-491q-41 0 -86 -29 t-70 -70l-55 -98q-16 -27 -17 -49z" />
<glyph unicode="&#xfe;" d="M-12 -180q0 -35 12 -56l272 -462q10 -18 29 -19q35 0 66 53l325 566q25 41 70 69.5t86 28.5h686q41 0 87 28.5t69 69.5l512 885q14 27 14 49q0 49 -57 49h-686q-61 0 -62 47q0 18 12 39q25 43 25 95q0 35 -12 55l-273 463q-10 18 -28 18q-35 0 -66 -53l-1057 -1831 q-25 -43 -24 -94zM848 147q0 23 16 50l398 688q23 41 67.5 69.5t85.5 28.5q55 0 55 -49q0 -23 -14 -49l-397 -688q-25 -41 -70 -70t-84 -29q-57 0 -57 49z" />
<glyph unicode="&#x152;" d="M-14 49q0 -49 55 -49h2261q41 0 87 28.5t69 69.5l112 197q16 27 17 49q0 49 -58 49h-491q-41 0 -86 -28.5t-70 -69.5l-55 -98q-25 -41 -70 -70t-86 -29q-57 0 -57 49q0 23 16 50l113 196q25 41 69.5 70t85.5 29h689q41 0 86 28.5t69 69.5l226 393q16 27 16 49 q0 49 -57 49h-2261q-41 0 -86 -28.5t-70 -69.5l-113 -197q-14 -27 -14 -49q0 -49 55 -49h492q41 0 87 28.5t68 69.5l58 99q23 41 68.5 69.5t84.5 28.5q57 0 58 -49q0 -23 -15 -49l-114 -197q-23 -41 -69 -69.5t-85 -28.5h-688q-41 0 -87 -29t-69 -69l-227 -394 q-14 -27 -14 -49zM729 147q0 23 16 50l113 196q25 41 70 70t86 29q57 0 57 -50q0 -23 -16 -49l-113 -196q-25 -41 -70 -70t-86 -29q-57 0 -57 49zM1898 639q0 23 15 49l115 197q23 41 68.5 69.5t84.5 28.5q57 0 57 -49q0 -23 -14 -49l-115 -197q-23 -41 -68.5 -69.5 t-84.5 -28.5q-57 0 -58 49z" />
<glyph unicode="&#x153;" d="M-14 49q0 -49 55 -49h2261q41 0 87 28.5t69 69.5l112 197q16 27 17 49q0 49 -58 49h-491q-41 0 -86 -28.5t-70 -69.5l-55 -98q-25 -41 -70 -70t-86 -29q-57 0 -57 49q0 23 16 50l113 196q25 41 69.5 70t85.5 29h689q41 0 86 28.5t69 69.5l226 393q16 27 16 49 q0 49 -57 49h-2261q-41 0 -86 -28.5t-70 -69.5l-113 -197q-14 -27 -14 -49q0 -49 55 -49h492q41 0 87 28.5t68 69.5l58 99q23 41 68.5 69.5t84.5 28.5q57 0 58 -49q0 -23 -15 -49l-114 -197q-23 -41 -69 -69.5t-85 -28.5h-688q-41 0 -87 -29t-69 -69l-227 -394 q-14 -27 -14 -49zM729 147q0 23 16 50l113 196q25 41 70 70t86 29q57 0 57 -50q0 -23 -16 -49l-113 -196q-25 -41 -70 -70t-86 -29q-57 0 -57 49zM1898 639q0 23 15 49l115 197q23 41 68.5 69.5t84.5 28.5q57 0 57 -49q0 -23 -14 -49l-115 -197q-23 -41 -68.5 -69.5 t-84.5 -28.5q-57 0 -58 49z" />
<glyph unicode="&#x2000;" horiz-adv-x="1032" />
<glyph unicode="&#x2001;" horiz-adv-x="2064" />
<glyph unicode="&#x2002;" horiz-adv-x="1032" />
<glyph unicode="&#x2003;" horiz-adv-x="2064" />
<glyph unicode="&#x2004;" horiz-adv-x="688" />
<glyph unicode="&#x2005;" horiz-adv-x="516" />
<glyph unicode="&#x2006;" horiz-adv-x="344" />
<glyph unicode="&#x2007;" horiz-adv-x="344" />
<glyph unicode="&#x2008;" horiz-adv-x="258" />
<glyph unicode="&#x2009;" horiz-adv-x="412" />
<glyph unicode="&#x200a;" horiz-adv-x="114" />
<glyph unicode="&#x2010;" horiz-adv-x="1716" d="M197 342q0 -49 55 -49h1376q41 0 87 28.5t69 69.5l227 393q14 27 14 50q0 49 -55 49h-1376q-41 0 -87 -29t-69 -70l-227 -393q-14 -27 -14 -49z" />
<glyph unicode="&#x2011;" horiz-adv-x="1716" d="M197 342q0 -49 55 -49h1376q41 0 87 28.5t69 69.5l227 393q14 27 14 50q0 49 -55 49h-1376q-41 0 -87 -29t-69 -70l-227 -393q-14 -27 -14 -49z" />
<glyph unicode="&#x2012;" horiz-adv-x="1716" d="M197 342q0 -49 55 -49h1376q41 0 87 28.5t69 69.5l227 393q14 27 14 50q0 49 -55 49h-1376q-41 0 -87 -29t-69 -70l-227 -393q-14 -27 -14 -49z" />
<glyph unicode="&#x2013;" horiz-adv-x="912" d="M197 342q0 -49 31 -49h771q23 0 48.5 28.5t38.5 69.5l127 393q8 27 8 50q0 49 -31 49h-771q-23 0 -48.5 -29t-38.5 -70l-127 -393q-8 -27 -8 -49z" />
<glyph unicode="&#x2014;" horiz-adv-x="1936" d="M197 342q0 -49 62 -49h1541q46 0 97.5 28.5t77.5 69.5l254 393q16 27 16 50q0 49 -62 49h-1541q-46 0 -97.5 -29t-77.5 -70l-254 -393q-16 -27 -16 -49z" />
<glyph unicode="&#x2018;" d="M-12 1069q0 -33 12 -51l272 -463q10 -18 29 -18q35 0 66 53l567 983q16 27 16 49q0 49 -57 49h-492q-41 0 -86 -28.5t-69 -69.5l-228 -393q-31 -53 -30 -111z" />
<glyph unicode="&#x2019;" d="M-14 541q0 -49 55 -49h491q41 0 87.5 28.5t68.5 69.5l227 393q31 53 31 111q0 33 -12 51l-272 463q-10 18 -29 18q-35 0 -66 -53l-567 -983q-14 -27 -14 -49z" />
<glyph unicode="&#x201a;" d="M-12 -12q0 -33 12 -51l272 -463q10 -18 29 -19q35 0 66 53l567 984q16 27 16 49q0 49 -57 49h-492q-41 0 -86 -29t-69 -69l-228 -394q-31 -53 -30 -110z" />
<glyph unicode="&#x201c;" d="M614 1069q0 -33 13 -51l272 -463q10 -18 29 -18q35 0 65 53l568 983q14 27 14 49q0 49 -55 49h-492q-41 0 -87 -28.5t-69 -69.5l-227 -393q-31 -53 -31 -111zM1499 1069q0 -33 12 -51l273 -463q10 -18 28 -18q35 0 66 53l567 983q14 27 15 49q0 49 -56 49h-491 q-41 0 -87 -28.5t-69 -69.5l-227 -393q-31 -53 -31 -111z" />
<glyph unicode="&#x201d;" d="M307 541q0 -49 58 -49h491q39 0 85 28.5t69 69.5l227 393q31 53 31 111q0 33 -11 51l-272 463q-12 18 -31 18q-33 0 -63 -53l-569 -983q-14 -27 -15 -49zM1192 541q0 -49 57 -49h492q39 0 85 28.5t68 69.5l228 393q31 53 30 111q0 33 -10 51l-272 463q-12 18 -31 18 q-33 0 -63 -53l-570 -983q-14 -27 -14 -49z" />
<glyph unicode="&#x201e;" d="M-12 -12q0 -33 12 -51l272 -463q10 -18 29 -19q35 0 66 53l567 984q16 27 16 49q0 49 -57 49h-492q-41 0 -86 -29t-69 -69l-228 -394q-31 -53 -30 -110zM872 -12q0 -33 13 -51l272 -463q10 -18 29 -19q35 0 65 53l568 984q16 27 16 49q0 49 -57 49h-492q-41 0 -86 -29 t-70 -69l-227 -394q-31 -53 -31 -110z" />
<glyph unicode="&#x2022;" d="M-14 344q0 -49 55 -49h491q41 0 87.5 28.5t68.5 69.5l227 393q14 27 15 50q0 49 -56 49h-491q-41 0 -87 -29t-69 -70l-227 -393q-14 -27 -14 -49z" />
<glyph unicode="&#x2026;" d="M-14 49q0 -49 55 -49h491q41 0 87.5 28.5t68.5 69.5l113 197q16 27 16 49q0 49 -57 49h-492q-41 0 -86 -28.5t-69 -69.5l-113 -197q-14 -27 -14 -49zM870 49q0 -49 56 -49h491q41 0 87 28.5t69 69.5l113 197q16 27 16 49q0 49 -57 49h-492q-41 0 -86 -28.5t-70 -69.5 l-112 -197q-14 -27 -15 -49zM1755 49q0 -49 55 -49h492q41 0 87 28.5t69 69.5l112 197q16 27 17 49q0 49 -58 49h-491q-41 0 -86 -28.5t-70 -69.5l-113 -197q-14 -27 -14 -49z" />
<glyph unicode="&#x202f;" horiz-adv-x="412" />
<glyph unicode="&#x205f;" horiz-adv-x="516" />
<glyph unicode="&#x25fc;" horiz-adv-x="1085" d="M0 0v1085h1085v-1085h-1085z" />
</font>
</defs>
</svg>
